<svg preserveAspectRatio="none" width="100%" height="100%" overflow="visible" style="display: block;" viewBox="0 0 50 50" fill="none" xmlns="http://www.w3.org/2000/svg">
<g id="16px/Invoice">
<path id="vector" d="M29.1585 4.29464V6.6748C29.1585 10.1751 29.1585 11.9253 29.8397 13.2622C30.4389 14.4383 31.3951 15.3944 32.5711 15.9936C33.908 16.6748 35.6582 16.6748 39.1585 16.6748L41.5387 16.6748M41.5387 16.6748C41.5096 16.4754 41.4733 16.2855 41.4283 16.0979C41.2241 15.2476 40.8874 14.4347 40.4305 13.6891C39.9152 12.8481 39.1946 12.1275 37.7533 10.6862L35.1471 8.08004C33.7058 6.63879 32.9852 5.91815 32.1442 5.4028C31.3986 4.9459 30.5858 4.60919 29.7355 4.40506C29.5478 4.36001 29.3579 4.32378 29.1585 4.29464C28.3387 4.1748 27.3585 4.1748 25.719 4.1748H21.6585C16.9914 4.1748 14.6579 4.1748 12.8753 5.08308C11.3073 5.88203 10.0324 7.15687 9.23347 8.72488C8.3252 10.5075 8.3252 12.841 8.3252 17.5081V32.5081C8.3252 37.1752 8.3252 39.5088 9.23347 41.2914C10.0324 42.8594 11.3073 44.1342 12.8753 44.9332C14.6579 45.8415 16.9914 45.8415 21.6585 45.8415H28.3252C32.9923 45.8415 35.3259 45.8415 37.1085 44.9332C38.6765 44.1342 39.9513 42.8594 40.7503 41.2914C41.6585 39.5088 41.6585 37.1752 41.6585 32.5081V20.1143C41.6585 18.4748 41.6585 17.4947 41.5387 16.6748ZM16.6585 27.0915H33.3252M16.6585 35.4248H27.0752" stroke="var(--stroke-0, #E72D2D)" stroke-width="2.75" stroke-linecap="round" stroke-linejoin="round"/>
</g>
</svg>
