<svg preserveAspectRatio="xMidYMid meet" width="100%" height="100%" overflow="visible" style="display: block;" viewBox="0 0 14.8315 13.2426" fill="none" xmlns="http://www.w3.org/2000/svg">
<path id="vector" d="M9.57402 8.625H12.5548C13.4638 8.625 14.8666 9.74978 13.855 10.623C10.9583 13.2917 6.29167 13.2917 3.29167 10.5672M5.95833 9.95833H9.18392C9.69286 9.95833 10.0239 9.42274 9.79627 8.96754C9.48702 8.34903 8.85485 7.95833 8.16334 7.95833H7.4152C7.33396 7.95833 7.25384 7.93942 7.18118 7.90309C5.97727 7.30114 4.62558 7.06056 3.28916 7.20929M3.29167 10.5672V7.29167C3.29167 7.264 3.29082 7.23654 3.28916 7.20929C3.24662 6.51128 2.66705 5.95833 1.95833 5.95833C1.22195 5.95833 0.625 6.55529 0.625 7.29167V10.625C0.625 11.3614 1.22195 11.9583 1.95833 11.9583C2.69471 11.9583 3.29167 11.3614 3.29167 10.625V10.5672ZM12.2917 1.7099C12.8962 2.13155 13.2917 2.83208 13.2917 3.625C13.2917 4.80049 12.4224 5.77296 11.2917 5.9347M10.625 2.95833C10.625 4.247 9.58033 5.29167 8.29167 5.29167C7.003 5.29167 5.95833 4.247 5.95833 2.95833C5.95833 1.66967 7.003 0.625 8.29167 0.625C9.58033 0.625 10.625 1.66967 10.625 2.95833Z" stroke="var(--stroke-0, #623CEA)" stroke-width="1.25" stroke-linecap="round" stroke-linejoin="round"/>
</svg>
