<svg preserveAspectRatio="none" width="100%" height="100%" overflow="visible" style="display: block;" viewBox="0 0 21.8182 21.8182" fill="none" xmlns="http://www.w3.org/2000/svg">
<g id="Building">
<path id="vector" d="M6.36364 5.45455H9.09091M6.36364 9.09091H9.09091M6.36364 12.7273H9.09091M6.36364 16.3636H9.09091M15.4545 12.7273H16.3636M15.4545 16.3636H16.3636M11.2727 20C11.7819 20 12.0364 20 12.2309 19.9009C12.402 19.8138 12.541 19.6747 12.6282 19.5036C12.7273 19.3092 12.7273 19.0546 12.7273 18.5455V9.09091M11.2727 20H17.6364C18.1455 20 18.4001 20 18.5945 19.9009C18.7656 19.8138 18.9047 19.6747 18.9918 19.5036C19.0909 19.3092 19.0909 19.0546 19.0909 18.5455V12C19.0909 10.9817 19.0909 10.4726 18.8927 10.0837C18.7184 9.74154 18.4403 9.46339 18.0982 9.28908C17.7092 9.09091 17.2001 9.09091 16.1818 9.09091H12.7273M11.2727 20H4.18182C3.67268 20 3.41811 20 3.22364 19.9009C3.05259 19.8138 2.91352 19.6747 2.82636 19.5036C2.72727 19.3092 2.72727 19.0546 2.72727 18.5455V4.72727C2.72727 3.709 2.72727 3.19986 2.92544 2.81093C3.09976 2.46881 3.3779 2.19067 3.72002 2.01635C4.10895 1.81818 4.61809 1.81818 5.63636 1.81818H9.81818C10.8365 1.81818 11.3456 1.81818 11.7345 2.01635C12.0766 2.19067 12.3548 2.46881 12.5291 2.81093C12.7273 3.19986 12.7273 3.709 12.7273 4.72727V9.09091" stroke="var(--stroke-0, #E6B8CB)" stroke-width="1.36364" stroke-linecap="round" stroke-linejoin="round"/>
</g>
</svg>
