<svg preserveAspectRatio="none" width="100%" height="100%" overflow="visible" style="display: block;" viewBox="0 0 20 20" fill="none" xmlns="http://www.w3.org/2000/svg">
<g id="Building">
<path id="vector" d="M5.83349 4.99997H8.33349M5.83349 8.33331H8.33349M5.83349 11.6666H8.33349M5.83349 15H8.33349M14.1668 11.6666H15.0002M14.1668 15H15.0002M10.3335 18.3333C10.8002 18.3333 11.0336 18.3333 11.2118 18.2425C11.3686 18.1626 11.4961 18.0351 11.576 17.8783C11.6668 17.7 11.6668 17.4667 11.6668 17V8.33331M10.3335 18.3333H16.1668C16.6335 18.3333 16.8669 18.3333 17.0451 18.2425C17.2019 18.1626 17.3294 18.0351 17.4093 17.8783C17.5002 17.7 17.5002 17.4667 17.5002 17V11C17.5002 10.0666 17.5002 9.59984 17.3185 9.24332C17.1587 8.92972 16.9037 8.67475 16.5901 8.51496C16.2336 8.33331 15.7669 8.33331 14.8335 8.33331H11.6668M10.3335 18.3333H3.83349C3.36678 18.3333 3.13342 18.3333 2.95516 18.2425C2.79836 18.1626 2.67088 18.0351 2.59098 17.8783C2.50016 17.7 2.50016 17.4667 2.50016 17V4.33331C2.50016 3.39988 2.50016 2.93317 2.68181 2.57665C2.8416 2.26305 3.09657 2.00808 3.41017 1.84829C3.76669 1.66664 4.2334 1.66664 5.16682 1.66664H9.00016C9.93358 1.66664 10.4003 1.66664 10.7568 1.84829C11.0704 2.00808 11.3254 2.26305 11.4852 2.57665C11.6668 2.93317 11.6668 3.39988 11.6668 4.33331V8.33331" stroke="var(--stroke-0, #D6BEAB)" stroke-width="1.25" stroke-linecap="round" stroke-linejoin="round"/>
</g>
</svg>
