<svg preserveAspectRatio="none" width="100%" height="100%" overflow="visible" style="display: block;" viewBox="0 0 252 252" fill="none" xmlns="http://www.w3.org/2000/svg">
<g id="Frame 1410085474">
<g id="Ellipse 22">
</g>
<path id="Ellipse 24" d="M252 126C252 97.8532 242.576 70.5169 225.23 48.3502C207.883 26.1836 183.615 10.4632 156.294 3.69596C128.972 -3.07126 100.172 -0.495595 74.4851 11.0122C48.7982 22.52 27.7041 42.2972 14.5667 67.1901L90.3259 107.173C94.5317 99.2036 101.285 92.8721 109.508 89.188C117.731 85.5039 126.952 84.6794 135.698 86.8458C144.445 89.0122 152.214 94.0449 157.767 101.141C163.32 108.238 166.337 116.989 166.337 126H252Z" fill="var(--fill-0, #D7CCFF)"/>
<path id="Ellipse 23" d="M252 126C252 145.117 247.65 163.983 239.279 181.17C230.909 198.357 218.737 213.414 203.686 225.201C188.635 236.988 171.1 245.195 152.407 249.202C133.715 253.208 114.356 252.909 95.7961 248.326C77.2365 243.744 59.963 234.998 45.2836 222.752C30.6043 210.505 18.904 195.079 11.0689 177.641C3.23373 160.204 -0.530838 141.212 0.0602499 122.104C0.651338 102.996 5.58259 84.2735 14.4806 67.3536L90.3331 107.243C87.4872 112.655 85.9101 118.643 85.721 124.754C85.532 130.865 86.736 136.939 89.2419 142.516C91.7478 148.093 95.4899 153.027 100.185 156.944C104.88 160.861 110.404 163.658 116.34 165.123C122.276 166.589 128.467 166.685 134.446 165.403C140.424 164.122 146.032 161.497 150.846 157.727C155.66 153.958 159.553 149.142 162.23 143.645C164.907 138.148 166.298 132.114 166.298 126L252 126Z" fill="var(--fill-0, #623CEA)"/>
</g>
</svg>
