<svg preserveAspectRatio="none" width="100%" height="100%" overflow="visible" style="display: block;" viewBox="0 0 40 40" fill="none" xmlns="http://www.w3.org/2000/svg">
<g id="Frame">
<path id="Vector" d="M33.3385 18.3359C33.3385 17.0099 32.8118 15.7381 31.8741 14.8004C30.9364 13.8627 29.6646 13.3359 28.3385 13.3359H27.3385C26.7185 13.3359 26.4102 13.3359 26.1502 13.2943C25.4552 13.184 24.8129 12.8567 24.3154 12.3591C23.8178 11.8615 23.4904 11.2193 23.3802 10.5243C23.3385 10.2643 23.3385 9.95594 23.3385 9.33594V8.33594C23.3385 7.00985 22.8118 5.73809 21.8741 4.8004C20.9364 3.86272 19.6646 3.33594 18.3385 3.33594M33.3385 16.6693V30.0026C33.3385 31.7707 32.6362 33.4664 31.3859 34.7166C30.1357 35.9669 28.44 36.6693 26.6719 36.6693H13.3385C11.5704 36.6693 9.87474 35.9669 8.6245 34.7166C7.37425 33.4664 6.67188 31.7707 6.67188 30.0026V10.0026C6.67187 8.23449 7.37425 6.5388 8.6245 5.28856C9.87474 4.03832 11.5704 3.33594 13.3385 3.33594H20.0052C23.5414 3.33594 26.9328 4.7407 29.4333 7.24118C31.9338 9.74167 33.3385 13.1331 33.3385 16.6693Z" stroke="var(--stroke-0, #939596)" stroke-width="2" stroke-linecap="round" stroke-linejoin="round"/>
</g>
</svg>
