<svg preserveAspectRatio="none" width="100%" height="100%" overflow="visible" style="display: block;" viewBox="0 0 40 40" fill="none" xmlns="http://www.w3.org/2000/svg">
<g id="Frame">
<path id="Vector" d="M23.3333 3.43V5.33333C23.3333 8.13333 23.3333 9.53333 23.8783 10.6033C24.3577 11.5441 25.1226 12.309 26.0633 12.7883C27.1333 13.3333 28.5333 13.3333 31.3333 13.3333H33.2367M23.3333 3.43C22.6783 3.33333 21.8933 3.33333 20.5817 3.33333H17.3333C13.6 3.33333 11.7333 3.33333 10.3067 4.06C9.05231 4.69915 8.03248 5.71898 7.39333 6.97333C6.66667 8.4 6.66667 10.2667 6.66667 14V26C6.66667 29.7333 6.66667 31.6 7.39333 33.0267C8.03248 34.281 9.05231 35.3009 10.3067 35.94C11.7333 36.6667 13.6 36.6667 17.3333 36.6667H22.6667C26.4 36.6667 28.2667 36.6667 29.6933 35.94C30.9477 35.3009 31.9675 34.281 32.6067 33.0267C33.3333 31.6 33.3333 29.7333 33.3333 26V16.085C33.3333 14.7733 33.3333 13.99 33.2367 13.3333M23.3333 3.43C23.4922 3.45222 23.6461 3.48167 23.795 3.51833C24.475 3.68167 25.125 3.95167 25.7217 4.315C26.395 4.72833 26.9717 5.305 28.125 6.45833L30.2083 8.54167C31.3617 9.695 31.9383 10.2717 32.3517 10.945C32.7172 11.5414 32.9866 12.1915 33.15 12.8717C33.1844 13.0206 33.2133 13.1744 33.2367 13.3333M15 24.4433L18.9017 28.3417C20.7793 25.0603 23.3767 22.2476 26.4983 20.115" stroke="var(--stroke-0, #939596)" stroke-width="2" stroke-linecap="round" stroke-linejoin="round"/>
</g>
</svg>
