<svg width="20" height="21" viewBox="0 0 20 21" fill="none" xmlns="http://www.w3.org/2000/svg">
<rect width="20" height="21" fill="#1E1E1E"/>
<g id="Dashboard Explorations">
<path d="M-10017.8 -17435C-10017.8 -17436.1 -10016.9 -17437 -10015.8 -17437H58780.2C58781.4 -17437 58782.2 -17436.1 58782.2 -17435V38817C58782.2 38818.1 58781.4 38819 58780.2 38819H-10015.7C-10016.9 38819 -10017.8 38818.1 -10017.8 38817V-17435Z" fill="#252525"/>
<path d="M-10015.8 -17437V-17436H58780.2V-17437V-17438H-10015.8V-17437ZM58782.2 -17435H58781.2V38817H58782.2H58783.2V-17435H58782.2ZM58780.2 38819V38818H-10015.7V38819V38820H58780.2V38819ZM-10017.8 38817H-10016.8V-17435H-10017.8H-10018.8V38817H-10017.8ZM-10015.7 38819V38818C-10016.3 38818 -10016.8 38817.6 -10016.8 38817H-10017.8H-10018.8C-10018.8 38818.7 -10017.4 38820 -10015.7 38820V38819ZM58782.2 38817H58781.2C58781.2 38817.6 58780.8 38818 58780.2 38818V38819V38820C58781.9 38820 58783.2 38818.7 58783.2 38817H58782.2ZM58780.2 -17437V-17436C58780.8 -17436 58781.2 -17435.6 58781.2 -17435H58782.2H58783.2C58783.2 -17436.7 58781.9 -17438 58780.2 -17438V-17437ZM-10015.8 -17437V-17438C-10017.4 -17438 -10018.8 -17436.7 -10018.8 -17435H-10017.8H-10016.8C-10016.8 -17435.6 -10016.3 -17436 -10015.8 -17436V-17437Z" fill="white" fill-opacity="0.1"/>
<g id="2.3">
<rect width="1366" height="2008" transform="translate(-1084.75 -303)" fill="#F9FAFB"/>
<g id="Frame 1410084344" filter="url(#filter0_dd_3275_59067)">
<rect x="-818.75" y="-287" width="1084" height="1976" rx="16" fill="white"/>
<g id="Frame 1410084346">
<g id="Frame 1410085486">
<rect x="-802.75" y="-22" width="1052" height="1694.7" rx="16" fill="#F4F4F5"/>
<g id="Frame 1410085503">
<g id="Frame 1410085351">
<g id="Metric item">
<rect width="259.25" height="100" transform="translate(-16 -16)" fill="white"/>
<g id="Frame">
<path id="Vector" d="M15 12.8109C13.707 14.5602 12.1928 16.1344 10.495 17.4943C10.3547 17.6072 10.1801 17.6689 10 17.6693C9.825 17.6693 9.65 17.6109 9.505 17.4943C7.80725 16.1344 6.29296 14.5602 5 12.8109M10 17.6693V4.33594" stroke="#623CEA" stroke-width="1.5" stroke-linecap="round" stroke-linejoin="round"/>
</g>
</g>
</g>
</g>
</g>
</g>
</g>
</g>
</g>
<defs>
<filter id="filter0_dd_3275_59067" x="-824.75" y="-293" width="1096" height="1988" filterUnits="userSpaceOnUse" color-interpolation-filters="sRGB">
<feFlood flood-opacity="0" result="BackgroundImageFix"/>
<feColorMatrix in="SourceAlpha" type="matrix" values="0 0 0 0 0 0 0 0 0 0 0 0 0 0 0 0 0 0 127 0" result="hardAlpha"/>
<feOffset/>
<feGaussianBlur stdDeviation="3"/>
<feComposite in2="hardAlpha" operator="out"/>
<feColorMatrix type="matrix" values="0 0 0 0 0 0 0 0 0 0 0 0 0 0 0 0 0 0 0.04 0"/>
<feBlend mode="normal" in2="BackgroundImageFix" result="effect1_dropShadow_3275_59067"/>
<feColorMatrix in="SourceAlpha" type="matrix" values="0 0 0 0 0 0 0 0 0 0 0 0 0 0 0 0 0 0 127 0" result="hardAlpha"/>
<feOffset dy="1"/>
<feGaussianBlur stdDeviation="1.5"/>
<feComposite in2="hardAlpha" operator="out"/>
<feColorMatrix type="matrix" values="0 0 0 0 0 0 0 0 0 0 0 0 0 0 0 0 0 0 0.02 0"/>
<feBlend mode="normal" in2="effect1_dropShadow_3275_59067" result="effect2_dropShadow_3275_59067"/>
<feBlend mode="normal" in="SourceGraphic" in2="effect2_dropShadow_3275_59067" result="shape"/>
</filter>
</defs>
</svg>
