<svg width="20" height="21" viewBox="0 0 20 21" fill="none" xmlns="http://www.w3.org/2000/svg">
<rect width="20" height="21" fill="#1E1E1E"/>
<g id="Dashboard Explorations">
<path d="M-9237 -17435C-9237 -17436.1 -9236.1 -17437 -9235 -17437H59561C59562.1 -17437 59563 -17436.1 59563 -17435V38817C59563 38818.1 59562.1 38819 59561 38819H-9235C-9236.1 38819 -9237 38818.1 -9237 38817V-17435Z" fill="#252525"/>
<path d="M-9235 -17437V-17436H59561V-17437V-17438H-9235V-17437ZM59563 -17435H59562V38817H59563H59564V-17435H59563ZM59561 38819V38818H-9235V38819V38820H59561V38819ZM-9237 38817H-9236V-17435H-9237H-9238V38817H-9237ZM-9235 38819V38818C-9235.55 38818 -9236 38817.6 -9236 38817H-9237H-9238C-9238 38818.7 -9236.65 38820 -9235 38820V38819ZM59563 38817H59562C59562 38817.6 59561.6 38818 59561 38818V38819V38820C59562.7 38820 59564 38818.7 59564 38817H59563ZM59561 -17437V-17436C59561.6 -17436 59562 -17435.6 59562 -17435H59563H59564C59564 -17436.7 59562.7 -17438 59561 -17438V-17437ZM-9235 -17437V-17438C-9236.66 -17438 -9238 -17436.7 -9238 -17435H-9237H-9236C-9236 -17435.6 -9235.55 -17436 -9235 -17436V-17437Z" fill="white" fill-opacity="0.1"/>
<g id="2.3">
<rect width="1366" height="2008" transform="translate(-304 -303)" fill="#F9FAFB"/>
<g id="Frame 1410084344" filter="url(#filter0_dd_3275_59067)">
<rect x="-38" y="-287" width="1084" height="1976" rx="16" fill="white"/>
<g id="Frame 1410084346">
<g id="Frame 1410085486">
<rect x="-22" y="-22" width="1052" height="1694.7" rx="16" fill="#F4F4F5"/>
<g id="Frame 1410085503">
<g id="Frame 1410085351">
<g id="Metric item">
<rect width="259.25" height="100" transform="translate(-16 -16)" fill="white"/>
<g id="Frame">
<path id="Vector" d="M17.4974 16.8333H6.66406M6.66406 16.8333C6.66406 17.3278 6.51744 17.8111 6.24274 18.2223C5.96803 18.6334 5.57759 18.9538 5.12077 19.143C4.66396 19.3323 4.16129 19.3818 3.67634 19.2853C3.19139 19.1888 2.74593 18.9507 2.3963 18.6011C2.04667 18.2515 1.80856 17.806 1.7121 17.3211C1.61564 16.8361 1.66515 16.3334 1.85436 15.8766C2.04358 15.4198 2.36402 15.0294 2.77514 14.7547C3.18626 14.48 3.66961 14.3333 4.16406 14.3333M6.66406 16.8333C6.66406 16.1703 6.40067 15.5344 5.93183 15.0656C5.46299 14.5967 4.8271 14.3333 4.16406 14.3333M2.4974 3.5C2.93942 3.5 3.36335 3.67559 3.67591 3.98816C3.98847 4.30072 4.16406 4.72464 4.16406 5.16667V14.3333M12.4974 8.5V5.58333M12.4974 5.58333H10.1641C9.23073 5.58333 8.76406 5.58333 8.4074 5.765C8.09381 5.92479 7.83885 6.17974 7.67906 6.49333C7.4974 6.85 7.4974 7.31667 7.4974 8.25V11.25C7.4974 12.1833 7.4974 12.65 7.67906 13.0067C7.83885 13.3203 8.09381 13.5752 8.4074 13.735C8.76406 13.9167 9.23073 13.9167 10.1641 13.9167H14.8307C15.7641 13.9167 16.2307 13.9167 16.5874 13.735C16.901 13.5752 17.1559 13.3203 17.3157 13.0067C17.4974 12.65 17.4974 12.1833 17.4974 11.25V8.25C17.4974 7.31667 17.4974 6.85 17.3157 6.49333C17.1559 6.17974 16.901 5.92479 16.5874 5.765C16.2307 5.58333 15.7641 5.58333 14.8307 5.58333H12.4974Z" stroke="#623CEA" stroke-width="1.5" stroke-linecap="round" stroke-linejoin="round"/>
</g>
</g>
</g>
</g>
</g>
</g>
</g>
</g>
</g>
<defs>
<filter id="filter0_dd_3275_59067" x="-44" y="-293" width="1096" height="1988" filterUnits="userSpaceOnUse" color-interpolation-filters="sRGB">
<feFlood flood-opacity="0" result="BackgroundImageFix"/>
<feColorMatrix in="SourceAlpha" type="matrix" values="0 0 0 0 0 0 0 0 0 0 0 0 0 0 0 0 0 0 127 0" result="hardAlpha"/>
<feOffset/>
<feGaussianBlur stdDeviation="3"/>
<feComposite in2="hardAlpha" operator="out"/>
<feColorMatrix type="matrix" values="0 0 0 0 0 0 0 0 0 0 0 0 0 0 0 0 0 0 0.04 0"/>
<feBlend mode="normal" in2="BackgroundImageFix" result="effect1_dropShadow_3275_59067"/>
<feColorMatrix in="SourceAlpha" type="matrix" values="0 0 0 0 0 0 0 0 0 0 0 0 0 0 0 0 0 0 127 0" result="hardAlpha"/>
<feOffset dy="1"/>
<feGaussianBlur stdDeviation="1.5"/>
<feComposite in2="hardAlpha" operator="out"/>
<feColorMatrix type="matrix" values="0 0 0 0 0 0 0 0 0 0 0 0 0 0 0 0 0 0 0.02 0"/>
<feBlend mode="normal" in2="effect1_dropShadow_3275_59067" result="effect2_dropShadow_3275_59067"/>
<feBlend mode="normal" in="SourceGraphic" in2="effect2_dropShadow_3275_59067" result="shape"/>
</filter>
</defs>
</svg>
