<svg preserveAspectRatio="none" width="100%" height="100%" overflow="visible" style="display: block;" viewBox="0 0 116 34" fill="none" xmlns="http://www.w3.org/2000/svg">
<g id="Logo">
<g id="Vector">
<path d="M2.51516 29.4757C2.32641 29.4757 2.17341 29.3216 2.17341 29.1315V14.163C2.17341 13.9729 2.02041 13.8188 1.83167 13.8188H0.341744C0.153004 13.8188 0 13.6646 0 13.4745V11.9755C0 11.8125 0.113465 11.6719 0.271844 11.6386L1.94128 11.2872C2.09657 11.2545 2.20877 11.1182 2.21493 10.9585C2.27903 9.29581 2.55059 7.97145 3.02961 6.98543C3.5565 5.92395 4.26999 5.161 5.17009 4.6966C6.07019 4.2322 7.11298 4 8.29848 4C8.56193 4 8.85831 4.01106 9.18761 4.03317C9.53887 4.03317 9.83525 4.04423 10.0767 4.06634C10.085 4.06634 10.0932 4.06634 10.1012 4.06634C10.3009 4.06634 10.458 4.23804 10.4418 4.43852L10.2669 6.60277C10.2525 6.78148 10.1044 6.91909 9.92644 6.91909C9.88237 6.91909 9.83368 6.91909 9.78037 6.91909C9.49497 6.89698 9.15468 6.87486 8.75952 6.85275C8.38631 6.83063 8.06798 6.81958 7.80453 6.81958C7.25569 6.81958 6.81661 6.91909 6.4873 7.11812C6.17995 7.31715 5.96042 7.72626 5.8287 8.34546C5.70926 8.90692 5.63495 9.74112 5.60576 10.848C5.60068 11.0404 5.75483 11.1982 5.94587 11.1982H9.50448C9.69322 11.1982 9.84622 11.3523 9.84622 11.5425V13.574C9.84622 13.7642 9.69322 13.9183 9.50448 13.9183H5.97286C5.78412 13.9183 5.63112 14.0724 5.63112 14.2625V29.1315C5.63112 29.3216 5.47812 29.4757 5.28937 29.4757H2.51516Z" fill="var(--fill-0, #262626)"/>
<path d="M16.4845 29.9069C15.4308 29.9069 14.5307 29.6637 13.7843 29.1772C13.0378 28.6906 12.467 27.9388 12.0719 26.9215C11.6767 25.8821 11.4791 24.5442 11.4791 22.9077V10.4478C11.4791 10.2577 11.6321 10.1036 11.8209 10.1036H14.5951C14.7838 10.1036 14.9368 10.2577 14.9368 10.4478V22.0453C14.9368 23.1731 14.9697 24.0688 15.0356 24.7322C15.1015 25.3956 15.2222 25.86 15.3978 26.1254C15.5515 26.3465 15.782 26.5013 16.0894 26.5898C16.3967 26.6782 16.748 26.7225 17.1432 26.7225C18.0213 26.7225 18.9104 26.5456 19.8105 26.1917C20.6561 25.8672 21.4371 25.5335 22.1534 25.1904C22.2716 25.1338 22.3462 25.0134 22.3462 24.8816V10.4478C22.3462 10.2577 22.4992 10.1036 22.6879 10.1036H25.4292C25.618 10.1036 25.771 10.2577 25.771 10.4478V29.1315C25.771 29.3216 25.618 29.4757 25.4292 29.4757H23.776C23.6144 29.4757 23.4749 29.3617 23.4416 29.2024L23.1348 27.7342C23.1166 27.6472 23.0404 27.5849 22.9521 27.5849C22.9218 27.5849 22.892 27.5923 22.8652 27.6066C22.4533 27.8254 21.9181 28.1167 21.2595 28.4806C20.6009 28.8344 19.8654 29.1661 19.0531 29.4757C18.2409 29.7632 17.3846 29.9069 16.4845 29.9069Z" fill="var(--fill-0, #262626)"/>
<path d="M36.0239 29.9069C35.1458 29.9069 34.3006 29.8185 33.4883 29.6416C32.6979 29.4646 31.9844 29.2656 31.3478 29.0445C30.7111 28.8233 30.2062 28.6354 29.833 28.4806C29.7175 28.4258 29.6199 28.3795 29.5401 28.3417C29.3868 28.269 29.3095 28.0941 29.3586 27.9306L30.0204 25.7256C30.0788 25.531 30.2909 25.4294 30.4775 25.5068C30.5397 25.5326 30.6103 25.5619 30.6892 25.5946C31.0624 25.7494 31.5564 25.9374 32.1711 26.1586C32.7858 26.3797 33.4663 26.5787 34.2128 26.7556C34.9592 26.9104 35.7056 26.9878 36.452 26.9878C36.8691 26.9878 37.2424 26.9547 37.5717 26.8883C37.901 26.7999 38.1644 26.6782 38.362 26.5234C38.5815 26.3244 38.7791 26.0369 38.9548 25.661C39.1304 25.2629 39.2182 24.8096 39.2182 24.301C39.2182 23.4827 39.0096 22.8635 38.5925 22.4433C38.1754 22.0011 37.6265 21.6583 36.946 21.415C36.2874 21.1718 35.5739 20.9396 34.8055 20.7184C34.1469 20.5194 33.4883 20.3093 32.8297 20.0882C32.193 19.8449 31.6112 19.5353 31.0844 19.1594C30.5575 18.7613 30.1294 18.2416 29.8001 17.6003C29.4927 16.9369 29.339 16.0965 29.339 15.0793C29.339 13.4649 29.844 12.1602 30.8538 11.165C31.8857 10.1699 33.5761 9.67232 35.9251 9.67232C36.7594 9.67232 37.5497 9.72761 38.2961 9.83818C39.0645 9.94875 39.7451 10.0814 40.3378 10.2362C40.76 10.3307 41.1098 10.414 41.3872 10.4861C41.5582 10.5305 41.663 10.7016 41.6303 10.8764L41.2243 13.0495C41.1894 13.2362 41.011 13.3592 40.8256 13.3242C40.7689 13.3135 40.7052 13.3014 40.6342 13.288C40.3049 13.1996 39.8658 13.1 39.317 12.9895C38.7681 12.8789 38.1534 12.7904 37.4729 12.7241C36.8143 12.6356 36.1447 12.5914 35.4641 12.5914C34.8274 12.5914 34.3335 12.6246 33.9822 12.6909C33.6529 12.7573 33.4005 12.8678 33.2248 13.0226C33.0712 13.1332 32.9285 13.3322 32.7967 13.6197C32.687 13.9072 32.6321 14.25 32.6321 14.648C32.6321 15.4442 32.8626 16.0523 33.3236 16.4725C33.8066 16.8927 34.4103 17.2133 35.1348 17.4345C35.8812 17.6556 36.6496 17.8878 37.4399 18.1311C38.0766 18.3301 38.6913 18.5512 39.2841 18.7945C39.8988 19.0156 40.4476 19.3363 40.9306 19.7565C41.4355 20.1545 41.8307 20.6742 42.1161 21.3155C42.4234 21.9568 42.5771 22.764 42.5771 23.737C42.5771 25.5725 42.0173 27.0652 40.8976 28.2152C39.778 29.343 38.1534 29.9069 36.0239 29.9069Z" fill="var(--fill-0, #262626)"/>
<path d="M53.0781 29.9401C51.4974 29.9401 50.0924 29.6194 48.863 28.9781C47.6555 28.3147 46.7115 27.2311 46.0309 25.7273C45.3723 24.2235 45.043 22.2333 45.043 19.7565C45.043 17.1691 45.3943 15.1456 46.0968 13.6861C46.8213 12.2265 47.7763 11.1872 48.9618 10.568C50.1692 9.94875 51.5194 9.63915 53.0122 9.63915C54.527 9.63915 55.8113 9.9377 56.8651 10.5348C57.9189 11.1098 58.7202 12.0717 59.269 13.4207C59.8398 14.7476 60.1252 16.5388 60.1252 18.7945V20.7391C60.1252 20.9292 59.9722 21.0833 59.7835 21.0833H48.4175C48.158 21.0833 48.0969 20.7181 48.3421 20.6324C48.4965 20.5784 48.656 20.6993 48.6496 20.8638C48.6065 21.9685 48.6447 22.882 48.7642 23.6043C48.8959 24.4005 49.0715 25.0086 49.2911 25.4288C49.5326 25.8268 49.7411 26.1143 49.9167 26.2912C50.2021 26.5345 50.5534 26.7225 50.9705 26.8552C51.3876 26.9878 51.8926 27.0542 52.4853 27.0542C53.122 27.0542 53.7586 26.9989 54.3953 26.8883C55.0539 26.7778 55.6686 26.6451 56.2394 26.4903C56.8102 26.3355 57.3151 26.1917 57.7542 26.059C58.0332 25.9653 58.268 25.8879 58.4586 25.8266C58.6345 25.77 58.8215 25.8676 58.8799 26.0442L59.5661 28.1177C59.6217 28.2859 59.5414 28.4688 59.3794 28.5382C59.1509 28.636 58.8287 28.7716 58.4128 28.945C57.7762 29.1882 56.9968 29.4094 56.0748 29.6084C55.1747 29.8295 54.1757 29.9401 53.0781 29.9401ZM48.6525 18.8348C48.6548 19.1122 48.3499 19.2858 48.1185 19.1353L48.0224 19.0728C47.7393 18.8886 47.8637 18.4465 48.2007 18.4394L57.0405 18.2545C57.3797 18.2474 57.5208 18.6887 57.2412 18.8823L57.1473 18.9473C56.9185 19.1058 56.6071 18.9378 56.608 18.6582C56.6116 17.5274 56.5765 16.5445 56.5028 15.7095C56.437 14.7144 56.2394 13.9625 55.9101 13.4539C55.7564 13.2327 55.504 13.0226 55.1527 12.8236C54.8014 12.6246 54.1428 12.5251 53.1769 12.5251C52.1231 12.5251 51.3328 12.6356 50.8059 12.8568C50.3009 13.0779 49.9167 13.3654 49.6533 13.7192C48.9648 14.5964 48.6311 16.3016 48.6525 18.8348Z" fill="var(--fill-0, #262626)"/>
<path d="M116 17.4895C116 20.1142 115.782 22.236 115.345 23.8549C114.908 25.4738 114.291 26.7494 113.495 27.6815C112.698 28.5891 111.748 29.2023 110.643 29.5212C109.538 29.84 108.317 29.9995 106.981 29.9995C105.645 29.9995 104.425 29.84 103.32 29.5212C102.215 29.2023 101.264 28.5891 100.468 27.6815C99.6711 26.7494 99.0545 25.4738 98.6177 23.8549C98.1809 22.236 97.9624 20.1142 97.9624 17.4895C97.9624 14.8894 98.1809 12.7799 98.6177 11.161C99.0545 9.5175 99.6711 8.24198 100.468 7.33439C101.264 6.42681 102.215 5.81357 103.32 5.49469C104.425 5.17581 105.645 5.01637 106.981 5.01637C108.317 5.01637 109.538 5.17581 110.643 5.49469C111.748 5.81357 112.698 6.42681 113.495 7.33439C114.291 8.24198 114.908 9.5175 115.345 11.161C115.782 12.7799 116 14.8894 116 17.4895ZM112.184 17.4895C112.184 15.3555 112.069 13.663 111.837 12.412C111.606 11.1364 111.272 10.1675 110.835 9.50524C110.399 8.84294 109.859 8.41368 109.217 8.21745C108.574 8.02121 107.829 7.9231 106.981 7.9231C106.133 7.9231 105.388 8.02121 104.746 8.21745C104.103 8.41368 103.551 8.84294 103.089 9.50524C102.652 10.1675 102.318 11.1364 102.086 12.412C101.881 13.663 101.778 15.3555 101.778 17.4895C101.778 19.6236 101.881 21.3284 102.086 22.6039C102.318 23.8549 102.652 24.8238 103.089 25.5106C103.551 26.1729 104.103 26.6022 104.746 26.7984C105.388 26.9946 106.133 27.0928 106.981 27.0928C107.829 27.0928 108.574 26.9946 109.217 26.7984C109.859 26.6022 110.399 26.1729 110.835 25.5106C111.272 24.8238 111.606 23.8549 111.837 22.6039C112.069 21.3284 112.184 19.6236 112.184 17.4895Z" fill="#623CEA"/>
<path fill-rule="evenodd" clip-rule="evenodd" d="M89.5593 5.01637C90.3009 5.01637 90.9962 5.04929 91.6451 5.11582C92.294 5.18236 92.9546 5.28252 93.6267 5.41558V8.39496C93.3717 8.32843 92.8966 8.24298 92.549 8.17644C92.2014 8.08774 91.7841 8.0219 91.2975 7.97754C90.8108 7.91101 90.2429 7.87669 89.594 7.87669C88.4816 7.87669 87.5429 8.03265 86.7781 8.34313C86.0365 8.65362 85.4223 9.15302 84.9356 9.84053C84.4491 10.5279 84.0897 11.4256 83.8579 12.5342C83.6262 13.643 83.4755 14.9853 83.406 16.5599C84.1708 16.0498 85.0283 15.6506 85.9786 15.3622C86.9519 15.0518 87.9833 14.8972 89.0726 14.8972C89.9996 14.8972 90.8687 15.0403 91.6799 15.3286C92.491 15.5948 93.1979 16.0169 93.8005 16.5935C94.4029 17.17 94.8666 17.9015 95.1911 18.7885C95.5387 19.6755 95.7125 20.7403 95.7125 21.9822C95.7125 24.6213 95.0404 26.6175 93.6962 27.9703C92.352 29.3231 90.4515 30 87.9949 30C86.697 30 85.5498 29.8326 84.5532 29.4999C83.5567 29.1673 82.7107 28.5906 82.0154 27.77C81.3435 26.9274 80.8218 25.8079 80.451 24.411C80.1034 22.9917 79.9296 21.1944 79.9296 19.021C79.9296 16.4266 80.1267 14.2424 80.5206 12.4683C80.9146 10.6941 81.5056 9.25171 82.2936 8.14283C83.1047 7.03415 84.113 6.23541 85.318 5.74756C86.5231 5.25972 87.9371 5.01637 89.5593 5.01637ZM87.9212 17.623C87.11 17.623 86.2757 17.7561 85.4181 18.0223C84.5838 18.2662 83.9001 18.5767 83.3671 18.9538V19.8516C83.3671 21.426 83.4714 22.7013 83.6799 23.6771C83.8885 24.6527 84.1783 25.407 84.549 25.9392C84.943 26.4715 85.4182 26.8264 85.9744 27.0038C86.5538 27.1812 87.2143 27.27 87.9559 27.27C89.5086 27.2699 90.6212 26.8491 91.2933 26.0065C91.9886 25.1416 92.3362 23.7993 92.3362 21.9808C92.3362 20.3399 91.9536 19.2091 91.189 18.5882C90.4242 17.945 89.3349 17.6231 87.9212 17.623Z" fill="#623CEA"/>
<path d="M75.2912 28.2364C76.8754 27.061 77.6675 25.3755 77.6675 23.1799C77.6675 21.6496 77.2774 20.3966 76.4971 19.4208C75.7405 18.4228 74.6174 17.7685 73.1278 17.458V17.2917C74.6174 16.8481 75.705 16.1495 76.3907 15.1959C77.1001 14.2423 77.4547 13.0336 77.4547 11.5699C77.4547 9.30774 76.7218 7.65551 75.2558 6.61316C73.8134 5.54864 71.7682 5.01637 69.12 5.01637C68.056 5.01637 67.0629 5.0829 66.1408 5.21597C65.2186 5.32686 64.018 5.42189 63.3086 5.62149V8.78717C63.4269 8.78717 63.9654 8.57588 64.2255 8.50935C64.4856 8.42064 64.8285 8.33193 65.2541 8.24322C65.6797 8.15451 66.1999 8.07689 66.8146 8.01035C67.4294 7.92164 68.1506 7.87729 68.9781 7.87729C70.7042 7.87729 71.9456 8.19886 72.7022 8.84202C73.4588 9.48517 73.8372 10.5386 73.8372 12.0023C73.8372 13.5326 73.4352 14.586 72.6313 15.1626C71.8273 15.7393 70.5978 16.0276 68.9427 16.0276H64.4504V18.8552H68.7299C70.5269 18.8552 71.8628 19.1768 72.7377 19.82C73.6125 20.4409 74.0499 21.4833 74.0499 22.947C74.0499 24.2998 73.6243 25.3422 72.7731 26.074C71.9456 26.7837 70.6096 27.1386 68.7653 27.1386C67.8195 27.1386 67.0156 27.1053 66.3536 27.0388C65.6915 26.9501 65.124 26.8614 64.6511 26.7726C64.2019 26.6618 63.8354 26.562 63.5517 26.4732C63.2679 26.3845 63.0315 26.3402 62.8423 26.3402V29.3294C63.4571 29.5069 64.3556 29.6668 65.325 29.7999C66.3181 29.933 67.4649 29.9995 68.7653 29.9995C71.5318 29.9995 73.707 29.4118 75.2912 28.2364Z" fill="#623CEA"/>
</g>
</g>
</svg>
