<svg width="120" height="32" viewBox="0 0 120 32" fill="none" xmlns="http://www.w3.org/2000/svg">
<path d="M18.4199 4C18.6868 4 18.9032 4.2149 18.9032 4.48V11.12C18.9032 11.3851 18.6868 11.6 18.4199 11.6H12.3378C12.0708 11.6 11.8544 11.8149 11.8544 12.08V18.32C11.8544 18.5851 11.638 18.8 11.3711 18.8H4.48335C4.2164 18.8 4 18.5851 4 18.32V4.48C4 4.2149 4.2164 4 4.48335 4H18.4199Z" fill="#623CEA"/>
<path d="M28.1674 4.48C28.1674 4.2149 27.951 4 27.6841 4H20.1922C19.9252 4 19.7088 4.2149 19.7088 4.48V11.92C19.7088 12.1851 19.4924 12.4 19.2255 12.4H13.1433C12.8764 12.4 12.66 12.6149 12.66 12.88V19.12C12.66 19.3851 12.4436 19.6 12.1766 19.6H4.48335C4.2164 19.6 4 19.8149 4 20.08V27.52C4 27.7851 4.2164 28 4.48335 28H20.4338C20.7008 28 20.9172 27.7851 20.9172 27.52V21.28C20.9172 21.0149 21.1336 20.8 21.4005 20.8H27.6841C27.951 20.8 28.1674 20.5851 28.1674 20.32V4.48Z" fill="#623CEA"/>
<path d="M28.1674 22.08C28.1674 21.8149 27.951 21.6 27.6841 21.6H22.2061C21.9392 21.6 21.7228 21.8149 21.7228 22.08V27.52C21.7228 27.7851 21.9392 28 22.2061 28H27.6841C27.951 28 28.1674 27.7851 28.1674 27.52V22.08Z" fill="#623CEA"/>
<path d="M35.7463 24.161C35.6128 24.161 35.5046 24.0536 35.5046 23.921V13.4854C35.5046 13.3528 35.3964 13.2454 35.2629 13.2454H34.2093C34.0758 13.2454 33.9676 13.1379 33.9676 13.0054V11.9603C33.9676 11.8467 34.0478 11.7486 34.1598 11.7254L35.3404 11.4804C35.4502 11.4576 35.5296 11.3626 35.5339 11.2513C35.5793 10.0921 35.7713 9.16877 36.1101 8.48134C36.4827 7.7413 36.9872 7.20939 37.6238 6.88562C38.2603 6.56186 38.9977 6.39997 39.8361 6.39997C40.0224 6.39997 40.232 6.40768 40.4649 6.4231C40.7133 6.4231 40.9229 6.43081 41.0936 6.44622C41.0995 6.44622 41.1053 6.44622 41.1109 6.44622C41.2521 6.44622 41.3633 6.56593 41.3518 6.70569L41.2281 8.21456C41.2179 8.33915 41.1132 8.43509 40.9873 8.43509C40.9562 8.43509 40.9217 8.43509 40.884 8.43509C40.6822 8.41967 40.4416 8.40425 40.1621 8.38884C39.8982 8.37342 39.6731 8.36571 39.4868 8.36571C39.0987 8.36571 38.7881 8.43509 38.5553 8.57385C38.3379 8.71261 38.1827 8.99783 38.0895 9.42952C38.0051 9.82096 37.9525 10.4025 37.9319 11.1743C37.9283 11.3084 38.0373 11.4184 38.1724 11.4184H40.6889C40.8224 11.4184 40.9306 11.5258 40.9306 11.6584V13.0747C40.9306 13.2073 40.8224 13.3147 40.6889 13.3147H38.1915C38.058 13.3147 37.9498 13.4222 37.9498 13.5547V23.921C37.9498 24.0536 37.8416 24.161 37.7081 24.161H35.7463Z" fill="#262626"/>
<path d="M45.6251 24.4616C44.8799 24.4616 44.2433 24.2921 43.7155 23.9529C43.1876 23.6137 42.784 23.0895 42.5045 22.3803C42.2251 21.6556 42.0854 20.7229 42.0854 19.582V10.8952C42.0854 10.7627 42.1936 10.6552 42.327 10.6552H44.2889C44.4224 10.6552 44.5306 10.7627 44.5306 10.8952V18.9807C44.5306 19.767 44.5538 20.3914 44.6004 20.8539C44.647 21.3165 44.7324 21.6402 44.8566 21.8252C44.9653 21.9794 45.1283 22.0873 45.3456 22.149C45.563 22.2107 45.8114 22.2415 46.0908 22.2415C46.7118 22.2415 47.3406 22.1182 47.9771 21.8715C48.5751 21.6453 49.1274 21.4126 49.634 21.1734C49.7175 21.1339 49.7703 21.05 49.7703 20.9581V10.8952C49.7703 10.7627 49.8785 10.6552 50.012 10.6552H51.9505C52.084 10.6552 52.1922 10.7627 52.1922 10.8952V23.921C52.1922 24.0536 52.084 24.161 51.9505 24.161H50.7814C50.6672 24.161 50.5685 24.0815 50.545 23.9704L50.328 22.9469C50.3151 22.8862 50.2612 22.8428 50.1988 22.8428C50.1774 22.8428 50.1563 22.848 50.1373 22.8579C49.846 23.0105 49.4675 23.2136 49.0018 23.4672C48.536 23.7139 48.016 23.9452 47.4415 24.161C46.8671 24.3614 46.2616 24.4616 45.6251 24.4616Z" fill="#262626"/>
<path d="M59.4429 24.4616C58.8219 24.4616 58.2241 24.4 57.6497 24.2766C57.0908 24.1533 56.5862 24.0145 56.136 23.8604C55.6858 23.7062 55.3287 23.5751 55.0648 23.4672C54.9831 23.429 54.9141 23.3968 54.8577 23.3704C54.7492 23.3197 54.6946 23.1978 54.7293 23.0838L55.1973 21.5465C55.2386 21.4108 55.3886 21.34 55.5206 21.394C55.5646 21.412 55.6145 21.4324 55.6703 21.4552C55.9342 21.5631 56.2835 21.6942 56.7182 21.8484C57.1529 22.0025 57.6342 22.1413 58.162 22.2646C58.6899 22.3726 59.2177 22.4265 59.7456 22.4265C60.0406 22.4265 60.3045 22.4034 60.5374 22.3571C60.7703 22.2955 60.9566 22.2107 61.0963 22.1028C61.2515 21.964 61.3913 21.7636 61.5155 21.5015C61.6397 21.224 61.7018 20.9079 61.7018 20.5533C61.7018 19.9828 61.5543 19.5512 61.2593 19.2582C60.9643 18.9499 60.5762 18.7109 60.0949 18.5413C59.6292 18.3717 59.1246 18.2098 58.5812 18.0556C58.1155 17.9169 57.6497 17.7704 57.184 17.6162C56.7337 17.4467 56.3223 17.2308 55.9497 16.9687C55.5771 16.6912 55.2744 16.3289 55.0415 15.8818C54.8241 15.4192 54.7155 14.8334 54.7155 14.1242C54.7155 12.9987 55.0725 12.0891 55.7867 11.3953C56.5164 10.7015 57.7118 10.3546 59.373 10.3546C59.9629 10.3546 60.5219 10.3931 61.0497 10.4702C61.5931 10.5473 62.0744 10.6398 62.4935 10.7477C62.7921 10.8136 63.0395 10.8717 63.2357 10.9219C63.3566 10.9529 63.4307 11.0722 63.4076 11.194L63.1204 12.709C63.0957 12.8392 62.9696 12.925 62.8385 12.9005C62.7984 12.8931 62.7533 12.8847 62.7031 12.8753C62.4703 12.8137 62.1598 12.7443 61.7716 12.6672C61.3835 12.5901 60.9488 12.5285 60.4675 12.4822C60.0018 12.4205 59.5282 12.3897 59.047 12.3897C58.5967 12.3897 58.2474 12.4128 57.999 12.4591C57.7661 12.5053 57.5876 12.5824 57.4634 12.6903C57.3547 12.7674 57.2538 12.9062 57.1607 13.1066C57.083 13.307 57.0442 13.546 57.0442 13.8235C57.0442 14.3786 57.2072 14.8025 57.5333 15.0955C57.8748 15.3884 58.3018 15.612 58.8141 15.7661C59.3419 15.9203 59.8853 16.0822 60.4442 16.2518C60.8944 16.3906 61.3292 16.5447 61.7483 16.7143C62.183 16.8685 62.5712 17.0921 62.9127 17.385C63.2698 17.6625 63.5493 18.0248 63.7511 18.4719C63.9684 18.919 64.0771 19.4818 64.0771 20.1601C64.0771 21.4398 63.6812 22.4805 62.8894 23.2822C62.0976 24.0685 60.9488 24.4616 59.4429 24.4616Z" fill="#262626"/>
<path d="M71.5031 24.4848C70.3853 24.4848 69.3917 24.2612 68.5223 23.8141C67.6684 23.3516 67.0009 22.5961 66.5196 21.5477C66.0538 20.4993 65.8209 19.1118 65.8209 17.385C65.8209 15.5811 66.0693 14.1704 66.5661 13.1529C67.0785 12.1353 67.7538 11.4107 68.5922 10.979C69.4461 10.5473 70.4008 10.3314 71.4566 10.3314C72.5278 10.3314 73.436 10.5396 74.1812 10.9559C74.9264 11.3567 75.4931 12.0274 75.8812 12.9679C76.2849 13.8929 76.4867 15.1417 76.4867 16.7143V18.07C76.4867 18.2026 76.3785 18.31 76.245 18.31H68.2073C68.0238 18.31 67.9806 18.0554 68.154 17.9957C68.2632 17.958 68.376 18.0423 68.3714 18.157C68.3409 18.9271 68.3679 19.564 68.4525 20.0676C68.5456 20.6227 68.6698 21.0467 68.8251 21.3396C68.9958 21.6171 69.1433 21.8175 69.2675 21.9409C69.4693 22.1105 69.7177 22.2415 70.0127 22.334C70.3077 22.4265 70.6648 22.4728 71.084 22.4728C71.5342 22.4728 71.9844 22.4342 72.4346 22.3571C72.9004 22.2801 73.3351 22.1876 73.7387 22.0796C74.1424 21.9717 74.4995 21.8715 74.81 21.779C75.0073 21.7137 75.1733 21.6597 75.3081 21.6169C75.4325 21.5775 75.5647 21.6456 75.606 21.7686L76.0913 23.2142C76.1306 23.3315 76.0738 23.459 75.9593 23.5074C75.7977 23.5756 75.5698 23.6701 75.2757 23.791C74.8255 23.9606 74.2744 24.1148 73.6223 24.2535C72.9858 24.4077 72.2794 24.4848 71.5031 24.4848ZM68.3735 16.7424C68.3751 16.9358 68.1595 17.0569 67.9959 16.9519L67.9279 16.9083C67.7277 16.7799 67.8157 16.4717 68.054 16.4668L74.3053 16.3378C74.5451 16.3329 74.6449 16.6406 74.4472 16.7755L74.3808 16.8209C74.219 16.9313 73.9988 16.8142 73.9994 16.6193C74.0019 15.8309 73.9772 15.1457 73.925 14.5636C73.8785 13.8698 73.7387 13.3456 73.5059 12.991C73.3972 12.8368 73.2187 12.6903 72.9703 12.5516C72.7219 12.4128 72.2561 12.3434 71.573 12.3434C70.8278 12.3434 70.2689 12.4205 69.8963 12.5747C69.5392 12.7289 69.2675 12.9293 69.0812 13.176C68.5943 13.7875 68.3584 14.9763 68.3735 16.7424Z" fill="#262626"/>
<path d="M116 15.8045C116 17.6344 115.846 19.1136 115.537 20.2423C115.228 21.371 114.792 22.2603 114.228 22.9101C113.665 23.5429 112.993 23.9704 112.211 24.1927C111.43 24.415 110.567 24.5262 109.622 24.5262C108.677 24.5262 107.814 24.415 107.033 24.1927C106.252 23.9704 105.579 23.5429 105.016 22.9101C104.453 22.2603 104.017 21.371 103.708 20.2423C103.399 19.1136 103.244 17.6344 103.244 15.8045C103.244 13.9918 103.399 12.5211 103.708 11.3924C104.017 10.2466 104.453 9.35737 105.016 8.72463C105.579 8.09188 106.252 7.66435 107.033 7.44204C107.814 7.21972 108.677 7.10856 109.622 7.10856C110.567 7.10856 111.43 7.21972 112.211 7.44204C112.993 7.66435 113.665 8.09188 114.228 8.72463C114.792 9.35737 115.228 10.2466 115.537 11.3924C115.846 12.5211 116 13.9918 116 15.8045ZM113.302 15.8045C113.302 14.3167 113.22 13.1367 113.056 12.2646C112.893 11.3753 112.657 10.6998 112.348 10.2381C112.039 9.77635 111.657 9.47708 111.203 9.34027C110.749 9.20346 110.222 9.13506 109.622 9.13506C109.023 9.13506 108.496 9.20346 108.041 9.34027C107.587 9.47708 107.196 9.77635 106.869 10.2381C106.56 10.6998 106.324 11.3753 106.161 12.2646C106.015 13.1367 105.943 14.3167 105.943 15.8045C105.943 17.2923 106.015 18.4809 106.161 19.3702C106.324 20.2423 106.56 20.9178 106.869 21.3966C107.196 21.8584 107.587 22.1577 108.041 22.2945C108.496 22.4313 109.023 22.4997 109.622 22.4997C110.222 22.4997 110.749 22.4313 111.203 22.2945C111.657 22.1577 112.039 21.8584 112.348 21.3966C112.657 20.9178 112.893 20.2423 113.056 19.3702C113.22 18.4809 113.302 17.2923 113.302 15.8045Z" fill="#262626"/>
<path fill-rule="evenodd" clip-rule="evenodd" d="M97.3018 7.10856C97.8262 7.10856 98.3179 7.13151 98.7768 7.1779C99.2357 7.22428 99.7028 7.29411 100.178 7.38688V9.46403C99.9978 9.41764 99.6618 9.35807 99.416 9.31169C99.1702 9.24984 98.8751 9.20394 98.531 9.17301C98.1868 9.12663 97.7852 9.1027 97.3263 9.1027C96.5396 9.1027 95.8759 9.21143 95.335 9.4279C94.8105 9.64436 94.3762 9.99253 94.032 10.4718C93.688 10.9511 93.4338 11.5769 93.2699 12.3498C93.106 13.1229 92.9995 14.0586 92.9503 15.1564C93.4912 14.8008 94.0976 14.5225 94.7696 14.3215C95.4579 14.105 96.1873 13.9972 96.9576 13.9972C97.6131 13.9972 98.2278 14.097 98.8014 14.298C99.375 14.4836 99.8749 14.7778 100.301 15.1798C100.727 15.5818 101.055 16.0918 101.284 16.7101C101.53 17.3286 101.653 18.0709 101.653 18.9367C101.653 20.7766 101.178 22.1683 100.227 23.1115C99.2767 24.0546 97.9327 24.5265 96.1955 24.5265C95.2776 24.5265 94.4663 24.4098 93.7616 24.1779C93.0569 23.946 92.4586 23.5439 91.9669 22.9718C91.4918 22.3844 91.1228 21.6039 90.8606 20.63C90.6148 19.6405 90.4919 18.3875 90.4919 16.8722C90.4919 15.0635 90.6312 13.5407 90.9098 12.3039C91.1884 11.0669 91.6064 10.0613 92.1636 9.28825C92.7372 8.5153 93.4503 7.95844 94.3025 7.61833C95.1547 7.27822 96.1546 7.10856 97.3018 7.10856ZM96.1433 15.8976C95.5697 15.8976 94.9797 15.9904 94.3733 16.1759C93.7832 16.346 93.2997 16.5625 92.9228 16.8254V17.4513C92.9228 18.5489 92.9966 19.4381 93.144 20.1183C93.2915 20.7985 93.4965 21.3244 93.7586 21.6955C94.0373 22.0665 94.3733 22.314 94.7666 22.4377C95.1763 22.5614 95.6435 22.6232 96.1679 22.6232C97.2659 22.6232 98.0527 22.3298 98.528 21.7424C99.0197 21.1393 99.2655 20.2036 99.2655 18.9357C99.2655 17.7917 98.995 17.0034 98.4543 16.5705C97.9134 16.1221 97.1431 15.8976 96.1433 15.8976Z" fill="#262626"/>
<path d="M87.2117 23.297C88.3321 22.4775 88.8922 21.3024 88.8922 19.7717C88.8922 18.7048 88.6163 17.8313 88.0645 17.1509C87.5294 16.4552 86.7353 15.999 85.6818 15.7826V15.6666C86.7353 15.3574 87.5044 14.8703 87.9893 14.2055C88.4909 13.5406 88.7417 12.698 88.7417 11.6775C88.7417 10.1004 88.2234 8.9485 87.1867 8.2218C86.1667 7.47964 84.7204 7.10856 82.8476 7.10856C82.0952 7.10856 81.3929 7.15495 80.7408 7.24772C80.0886 7.32503 79.2396 7.39128 78.7379 7.53044V9.73747C78.8215 9.73747 79.2024 9.59017 79.3863 9.54378C79.5703 9.48193 79.8127 9.42009 80.1137 9.35824C80.4147 9.29639 80.7826 9.24228 81.2173 9.19589C81.6521 9.13404 82.162 9.10312 82.7473 9.10312C83.9679 9.10312 84.8458 9.32732 85.3808 9.77571C85.9159 10.2241 86.1835 10.9585 86.1835 11.979C86.1835 13.0459 85.8992 13.7803 85.3307 14.1823C84.7622 14.5843 83.8927 14.7853 82.7222 14.7853H79.5453V16.7567H82.5717C83.8425 16.7567 84.7872 16.9809 85.4059 17.4293C86.0246 17.8622 86.3339 18.5889 86.3339 19.6094C86.3339 20.5525 86.033 21.2792 85.431 21.7895C84.8458 22.2842 83.901 22.5316 82.5968 22.5316C81.9279 22.5316 81.3594 22.5084 80.8912 22.462C80.4231 22.4002 80.0218 22.3383 79.6873 22.2765C79.3696 22.1992 79.1105 22.1296 78.9098 22.0678C78.7091 22.0059 78.5419 21.975 78.4082 21.975V24.059C78.8429 24.1827 79.4783 24.2943 80.1639 24.387C80.8662 24.4798 81.6771 24.5262 82.5968 24.5262C84.5532 24.5262 86.0914 24.1164 87.2117 23.297Z" fill="#262626"/>
</svg>
