<svg width="120" height="32" viewBox="0 0 120 32" fill="none" xmlns="http://www.w3.org/2000/svg">
<path d="M18.32 4C18.5851 4 18.8 4.2149 18.8 4.48V11.12C18.8 11.3851 18.5851 11.6 18.32 11.6H12.28C12.0149 11.6 11.8 11.8149 11.8 12.08V18.32C11.8 18.5851 11.5851 18.8 11.32 18.8H4.48C4.2149 18.8 4 18.5851 4 18.32V4.48C4 4.2149 4.2149 4 4.48 4H18.32Z" fill="#623CEA"/>
<path d="M28 4.48C28 4.2149 27.7851 4 27.52 4H20.08C19.8149 4 19.6 4.2149 19.6 4.48V11.92C19.6 12.1851 19.3851 12.4 19.12 12.4H13.08C12.8149 12.4 12.6 12.6149 12.6 12.88V19.12C12.6 19.3851 12.3851 19.6 12.12 19.6H4.48C4.2149 19.6 4 19.8149 4 20.08V27.52C4 27.7851 4.2149 28 4.48 28H20.32C20.5851 28 20.8 27.7851 20.8 27.52V21.28C20.8 21.0149 21.0149 20.8 21.28 20.8H27.52C27.7851 20.8 28 20.5851 28 20.32V4.48Z" fill="#623CEA"/>
<path d="M28 22.08C28 21.8149 27.7851 21.6 27.52 21.6H22.08C21.8149 21.6 21.6 21.8149 21.6 22.08V27.52C21.6 27.7851 21.8149 28 22.08 28H27.52C27.7851 28 28 27.7851 28 27.52V22.08Z" fill="#623CEA"/>
<path d="M35.5263 24.161C35.3938 24.161 35.2863 24.0535 35.2863 23.921V13.4854C35.2863 13.3528 35.1789 13.2454 35.0463 13.2454H34C33.8675 13.2454 33.76 13.1379 33.76 13.0054V11.9603C33.76 11.8467 33.8397 11.7486 33.9509 11.7254L35.1233 11.4804C35.2324 11.4576 35.3112 11.3626 35.3155 11.2513C35.3605 10.0921 35.5512 9.16877 35.8876 8.48134C36.2576 7.7413 36.7587 7.20939 37.3908 6.88562C38.023 6.56186 38.7553 6.39997 39.5878 6.39997C39.7728 6.39997 39.981 6.40768 40.2122 6.4231C40.4589 6.4231 40.6671 6.43081 40.8367 6.44622C40.8425 6.44622 40.8482 6.44622 40.8538 6.44622C40.9941 6.44622 41.1044 6.56593 41.0931 6.70569L40.9702 8.21456C40.9601 8.33915 40.8561 8.43509 40.7311 8.43509C40.7002 8.43509 40.666 8.43509 40.6285 8.43509C40.4281 8.41967 40.1891 8.40425 39.9116 8.38884C39.6495 8.37342 39.426 8.36571 39.2409 8.36571C38.8555 8.36571 38.5471 8.43509 38.3159 8.57385C38.1 8.71261 37.9459 8.99783 37.8534 9.42952C37.7695 9.82096 37.7173 10.4025 37.6968 11.1743C37.6932 11.3084 37.8015 11.4184 37.9356 11.4184H40.4348C40.5673 11.4184 40.6748 11.5258 40.6748 11.6584V13.0747C40.6748 13.2073 40.5673 13.3147 40.4348 13.3147H37.9546C37.8221 13.3147 37.7146 13.4222 37.7146 13.5547V23.921C37.7146 24.0535 37.6072 24.161 37.4746 24.161H35.5263Z" fill="#262626"/>
<path d="M45.3367 24.4616C44.5967 24.4616 43.9646 24.2921 43.4404 23.9529C42.9162 23.6137 42.5153 23.0895 42.2378 22.3803C41.9603 21.6556 41.8215 20.7229 41.8215 19.582V10.8952C41.8215 10.7627 41.929 10.6552 42.0615 10.6552H44.0098C44.1423 10.6552 44.2498 10.7627 44.2498 10.8952V18.9807C44.2498 19.767 44.2729 20.3914 44.3192 20.8539C44.3654 21.3165 44.4502 21.6402 44.5735 21.8252C44.6815 21.9794 44.8434 22.0873 45.0592 22.149C45.275 22.2107 45.5217 22.2415 45.7992 22.2415C46.4159 22.2415 47.0404 22.1182 47.6725 21.8715C48.2663 21.6453 48.8148 21.4126 49.3178 21.1734C49.4008 21.1339 49.4532 21.05 49.4532 20.9581V10.8952C49.4532 10.7627 49.5607 10.6552 49.6932 10.6552H51.6183C51.7509 10.6552 51.8583 10.7627 51.8583 10.8952V23.921C51.8583 24.0535 51.7509 24.161 51.6183 24.161H50.4574C50.3439 24.161 50.2459 24.0815 50.2225 23.9704L50.007 22.9469C49.9943 22.8862 49.9407 22.8428 49.8787 22.8428C49.8575 22.8428 49.8365 22.848 49.8177 22.8579C49.5284 23.0105 49.1526 23.2136 48.69 23.4672C48.2275 23.7139 47.711 23.9452 47.1406 24.161C46.5701 24.3614 45.9688 24.4616 45.3367 24.4616Z" fill="#262626"/>
<path d="M59.0588 24.4616C58.4421 24.4616 57.8485 24.4 57.278 24.2766C56.723 24.1533 56.2219 24.0145 55.7748 23.8604C55.3277 23.7062 54.9731 23.5751 54.711 23.4672C54.6299 23.429 54.5614 23.3968 54.5053 23.3704C54.3976 23.3197 54.3434 23.1978 54.3778 23.0838L54.8426 21.5465C54.8836 21.4108 55.0326 21.34 55.1637 21.394C55.2073 21.412 55.2569 21.4324 55.3123 21.4552C55.5744 21.5631 55.9213 21.6942 56.353 21.8484C56.7847 22.0025 57.2626 22.1413 57.7868 22.2646C58.311 22.3726 58.8352 22.4265 59.3594 22.4265C59.6523 22.4265 59.9144 22.4034 60.1457 22.3571C60.377 22.2955 60.562 22.2107 60.7007 22.1028C60.8549 21.964 60.9937 21.7636 61.117 21.5015C61.2404 21.224 61.302 20.9079 61.302 20.5533C61.302 19.9828 61.1556 19.5512 60.8626 19.2582C60.5697 18.9499 60.1843 18.7109 59.7063 18.5413C59.2438 18.3717 58.7427 18.2098 58.2031 18.0556C57.7406 17.9169 57.278 17.7704 56.8155 17.6162C56.3684 17.4467 55.9598 17.2308 55.5898 16.9687C55.2198 16.6912 54.9192 16.3289 54.6879 15.8818C54.472 15.4192 54.3641 14.8334 54.3641 14.1242C54.3641 12.9987 54.7187 12.0891 55.4279 11.3953C56.1526 10.7015 57.3397 10.3546 58.9894 10.3546C59.5753 10.3546 60.1303 10.3931 60.6545 10.4702C61.1941 10.5473 61.672 10.6398 62.0883 10.7477C62.3848 10.8136 62.6305 10.8717 62.8253 10.9219C62.9454 10.9529 63.019 11.0722 62.996 11.194L62.7108 12.709C62.6863 12.8392 62.5611 12.925 62.4308 12.9005C62.3911 12.8931 62.3463 12.8847 62.2965 12.8753C62.0652 12.8137 61.7568 12.7443 61.3714 12.6672C60.986 12.5901 60.5543 12.5285 60.0763 12.4822C59.6138 12.4205 59.1436 12.3897 58.6656 12.3897C58.2185 12.3897 57.8716 12.4128 57.6249 12.4591C57.3937 12.5053 57.2164 12.5824 57.093 12.6903C56.9851 12.7674 56.8849 12.9062 56.7924 13.1066C56.7153 13.307 56.6768 13.546 56.6768 13.8235C56.6768 14.3786 56.8386 14.8025 57.1624 15.0955C57.5016 15.3884 57.9256 15.612 58.4344 15.7661C58.9586 15.9203 59.4982 16.0822 60.0532 16.2518C60.5003 16.3906 60.932 16.5447 61.3483 16.7143C61.78 16.8685 62.1654 17.092 62.5046 17.385C62.8592 17.6625 63.1367 18.0248 63.3371 18.4719C63.553 18.919 63.6609 19.4818 63.6609 20.1601C63.6609 21.4398 63.2678 22.4805 62.4815 23.2822C61.6952 24.0685 60.5543 24.4616 59.0588 24.4616Z" fill="#262626"/>
<path d="M71.0355 24.4848C69.9254 24.4848 68.9387 24.2612 68.0753 23.8141C67.2274 23.3516 66.5644 22.5961 66.0865 21.5477C65.6239 20.4993 65.3927 19.1117 65.3927 17.385C65.3927 15.5811 65.6394 14.1704 66.1327 13.1529C66.6415 12.1353 67.3122 11.4107 68.1447 10.979C68.9927 10.5473 69.9408 10.3314 70.9892 10.3314C72.0531 10.3314 72.955 10.5396 73.695 10.9559C74.4351 11.3567 74.9978 12.0274 75.3832 12.9679C75.7841 13.8929 75.9845 15.1417 75.9845 16.7143V18.07C75.9845 18.2026 75.8771 18.31 75.7445 18.31H67.7625C67.5803 18.31 67.5373 18.0554 67.7095 17.9957C67.818 17.958 67.93 18.0423 67.9255 18.157C67.8952 18.9271 67.922 19.564 68.006 20.0676C68.0985 20.6227 68.2218 21.0467 68.376 21.3396C68.5456 21.6171 68.692 21.8175 68.8154 21.9409C69.0158 22.1105 69.2625 22.2415 69.5554 22.334C69.8483 22.4265 70.203 22.4728 70.6192 22.4728C71.0663 22.4728 71.5134 22.4342 71.9605 22.3571C72.4231 22.2801 72.8548 22.1876 73.2556 22.0796C73.6565 21.9717 74.0111 21.8715 74.3194 21.779C74.5154 21.7137 74.6803 21.6596 74.8141 21.6169C74.9377 21.5775 75.069 21.6456 75.11 21.7686L75.5919 23.2142C75.6309 23.3315 75.5745 23.459 75.4608 23.5074C75.3003 23.5756 75.074 23.6701 74.782 23.791C74.3349 23.9606 73.7875 24.1147 73.14 24.2535C72.5079 24.4077 71.8064 24.4848 71.0355 24.4848ZM67.9275 16.7424C67.9292 16.9358 67.715 17.0569 67.5525 16.9519L67.485 16.9083C67.2862 16.7799 67.3736 16.4717 67.6102 16.4668L73.8182 16.3378C74.0564 16.3329 74.1555 16.6406 73.9592 16.7755L73.8932 16.8209C73.7326 16.9313 73.5138 16.8142 73.5145 16.6193C73.517 15.8309 73.4924 15.1457 73.4406 14.5636C73.3944 13.8698 73.2556 13.3456 73.0244 12.991C72.9164 12.8368 72.7391 12.6903 72.4925 12.5516C72.2458 12.4128 71.7832 12.3434 71.1049 12.3434C70.3648 12.3434 69.8098 12.4205 69.4398 12.5747C69.0852 12.7289 68.8154 12.9293 68.6304 13.176C68.1468 13.7875 67.9125 14.9763 67.9275 16.7424Z" fill="#262626"/>
<path d="M116.003 15.2741C116.003 17.1039 115.85 18.5832 115.543 19.7119C115.236 20.8406 114.803 21.7298 114.244 22.3797C113.685 23.0124 113.017 23.4399 112.241 23.6623C111.465 23.8846 110.608 23.9957 109.67 23.9957C108.731 23.9957 107.874 23.8846 107.098 23.6623C106.322 23.4399 105.655 23.0124 105.095 22.3797C104.536 21.7298 104.103 20.8406 103.796 19.7119C103.489 18.5832 103.336 17.1039 103.336 15.2741C103.336 13.4614 103.489 11.9907 103.796 10.862C104.103 9.7162 104.536 8.82694 105.095 8.19419C105.655 7.56145 106.322 7.13392 107.098 6.9116C107.874 6.68928 108.731 6.57812 109.67 6.57812C110.608 6.57812 111.465 6.68928 112.241 6.9116C113.017 7.13392 113.685 7.56145 114.244 8.19419C114.803 8.82694 115.236 9.7162 115.543 10.862C115.85 11.9907 116.003 13.4614 116.003 15.2741ZM113.324 15.2741C113.324 13.7863 113.242 12.6063 113.08 11.7341C112.918 10.8449 112.683 10.1694 112.376 9.70765C112.07 9.24592 111.691 8.94665 111.24 8.80984C110.788 8.67303 110.265 8.60462 109.67 8.60462C109.074 8.60462 108.551 8.67303 108.1 8.80984C107.649 8.94665 107.261 9.24592 106.936 9.70765C106.629 10.1694 106.395 10.8449 106.232 11.7341C106.088 12.6063 106.016 13.7863 106.016 15.2741C106.016 16.7619 106.088 17.9505 106.232 18.8397C106.395 19.7119 106.629 20.3874 106.936 20.8662C107.261 21.3279 107.649 21.6272 108.1 21.764C108.551 21.9008 109.074 21.9692 109.67 21.9692C110.265 21.9692 110.788 21.9008 111.24 21.764C111.691 21.6272 112.07 21.3279 112.376 20.8662C112.683 20.3874 112.918 19.7119 113.08 18.8397C113.242 17.9505 113.324 16.7619 113.324 15.2741Z" fill="#262626"/>
<path fill-rule="evenodd" clip-rule="evenodd" d="M97.4346 6.57812C97.9554 6.57813 98.4437 6.60108 98.8994 6.64746C99.3551 6.69385 99.819 6.76368 100.291 6.85645V8.93359C100.112 8.88721 99.7783 8.82763 99.5342 8.78125C99.2901 8.71941 98.997 8.6735 98.6553 8.64258C98.3135 8.59619 97.9147 8.57227 97.459 8.57227C96.6777 8.57227 96.0186 8.681 95.4814 8.89746C94.9606 9.11392 94.5293 9.4621 94.1875 9.94141C93.8458 10.4206 93.5934 11.0465 93.4307 11.8193C93.2679 12.5924 93.1621 13.5282 93.1133 14.626C93.6504 14.2704 94.2526 13.992 94.9199 13.791C95.6035 13.5746 96.3278 13.4668 97.0928 13.4668C97.7438 13.4668 98.3542 13.5666 98.9238 13.7676C99.4935 13.9531 99.9899 14.2474 100.413 14.6494C100.836 15.0514 101.162 15.5614 101.39 16.1797C101.634 16.7981 101.756 17.5404 101.756 18.4062C101.756 20.2462 101.284 21.6379 100.34 22.5811C99.3958 23.5242 98.0612 23.9961 96.3359 23.9961C95.4245 23.9961 94.6188 23.8794 93.9189 23.6475C93.2191 23.4155 92.625 23.0135 92.1367 22.4414C91.6648 21.8539 91.2985 21.0735 91.0381 20.0996C90.7939 19.1101 90.6719 17.857 90.6719 16.3418C90.6719 14.533 90.8103 13.0103 91.0869 11.7734C91.3636 10.5365 91.7786 9.5309 92.332 8.75781C92.9017 7.98487 93.6098 7.42801 94.4561 7.08789C95.3024 6.74778 96.2953 6.57812 97.4346 6.57812ZM96.2842 15.3672C95.7145 15.3672 95.1286 15.46 94.5264 15.6455C93.9404 15.8156 93.4603 16.0321 93.0859 16.2949V16.9209C93.0859 18.0185 93.1592 18.9076 93.3057 19.5879C93.4521 20.2681 93.6557 20.794 93.916 21.165C94.1927 21.5361 94.5264 21.7835 94.917 21.9072C95.3239 22.0309 95.7878 22.0928 96.3086 22.0928C97.399 22.0928 98.1803 21.7994 98.6523 21.2119C99.1406 20.6089 99.3848 19.6731 99.3848 18.4053C99.3847 17.2613 99.1161 16.473 98.5791 16.04C98.042 15.5917 97.277 15.3672 96.2842 15.3672Z" fill="#262626"/>
<path d="M87.4145 22.7665C88.527 21.9471 89.0833 20.772 89.0833 19.2413C89.0833 18.1744 88.8093 17.3008 88.2613 16.6205C87.73 15.9247 86.9413 15.4686 85.8951 15.2521V15.1362C86.9413 14.8269 87.7051 14.3399 88.1866 13.675C88.6848 13.0102 88.9339 12.1675 88.9339 11.1471C88.9339 9.56996 88.4191 8.41807 87.3896 7.69137C86.3766 6.94921 84.9404 6.57812 83.0806 6.57812C82.3333 6.57812 81.6359 6.62451 80.9883 6.71728C80.3407 6.79459 79.4975 6.86084 78.9994 7V9.20703C79.0824 9.20703 79.4606 9.05973 79.6433 9.01334C79.8259 8.9515 80.0667 8.88965 80.3656 8.8278C80.6645 8.76596 81.0298 8.71184 81.4616 8.66546C81.8933 8.60361 82.3998 8.57268 82.9809 8.57268C84.1931 8.57268 85.0649 8.79688 85.5963 9.24527C86.1276 9.69366 86.3933 10.4281 86.3933 11.4486C86.3933 12.5154 86.111 13.2498 85.5464 13.6519C84.9819 14.0539 84.1184 14.2549 82.956 14.2549H79.8012V16.2262H82.8066C84.0686 16.2262 85.0068 16.4504 85.6212 16.8988C86.2356 17.3317 86.5427 18.0584 86.5427 19.0789C86.5427 20.0221 86.2439 20.7488 85.6461 21.259C85.0649 21.7538 84.1267 22.0012 82.8315 22.0012C82.1673 22.0012 81.6027 21.978 81.1377 21.9316C80.6728 21.8698 80.2743 21.8079 79.9422 21.7461C79.6267 21.6688 79.3693 21.5992 79.17 21.5373C78.9708 21.4755 78.8047 21.4446 78.6719 21.4446V23.5286C79.1036 23.6523 79.7346 23.7638 80.4154 23.8566C81.1128 23.9494 81.9182 23.9957 82.8315 23.9957C84.7743 23.9957 86.3019 23.586 87.4145 22.7665Z" fill="#262626"/>
</svg>
