<svg preserveAspectRatio="none" width="100%" height="100%" overflow="visible" style="display: block;" viewBox="0 0 116.903 32" fill="none" xmlns="http://www.w3.org/2000/svg">
<g id="Logo">
<g id="Vector">
<path d="M18.32 4C18.5851 4 18.8 4.2149 18.8 4.48V11.12C18.8 11.3851 18.5851 11.6 18.32 11.6H12.28C12.0149 11.6 11.8 11.8149 11.8 12.08V18.32C11.8 18.5851 11.5851 18.8 11.32 18.8H4.48C4.2149 18.8 4 18.5851 4 18.32V4.48C4 4.2149 4.2149 4 4.48 4H18.32Z" fill="#623CEA"/>
<path d="M28 4.48C28 4.2149 27.7851 4 27.52 4H20.08C19.8149 4 19.6 4.2149 19.6 4.48V11.92C19.6 12.1851 19.3851 12.4 19.12 12.4H13.08C12.8149 12.4 12.6 12.6149 12.6 12.88V19.12C12.6 19.3851 12.3851 19.6 12.12 19.6H4.48C4.2149 19.6 4 19.8149 4 20.08V27.52C4 27.7851 4.2149 28 4.48 28H20.32C20.5851 28 20.8 27.7851 20.8 27.52V21.28C20.8 21.0149 21.0149 20.8 21.28 20.8H27.52C27.7851 20.8 28 20.5851 28 20.32V4.48Z" fill="#623CEA"/>
<path d="M28 22.08C28 21.8149 27.7851 21.6 27.52 21.6H22.08C21.8149 21.6 21.6 21.8149 21.6 22.08V27.52C21.6 27.7851 21.8149 28 22.08 28H27.52C27.7851 28 28 27.7851 28 27.52V22.08Z" fill="#623CEA"/>
<path d="M35.5263 24.161C35.3938 24.161 35.2863 24.0535 35.2863 23.921V13.4854C35.2863 13.3528 35.1789 13.2454 35.0463 13.2454H34C33.8675 13.2454 33.76 13.1379 33.76 13.0054V11.9603C33.76 11.8467 33.8397 11.7486 33.9509 11.7254L35.1233 11.4804C35.2324 11.4576 35.3112 11.3626 35.3155 11.2513C35.3605 10.0921 35.5512 9.16877 35.8876 8.48134C36.2576 7.7413 36.7587 7.20939 37.3908 6.88562C38.023 6.56186 38.7553 6.39997 39.5878 6.39997C39.7728 6.39997 39.981 6.40768 40.2123 6.4231C40.4589 6.4231 40.6671 6.43081 40.8367 6.44622C40.8425 6.44622 40.8482 6.44622 40.8539 6.44622C40.9941 6.44622 41.1044 6.56593 41.0931 6.70569L40.9702 8.21456C40.9601 8.33915 40.8561 8.43509 40.7311 8.43509C40.7002 8.43509 40.666 8.43509 40.6285 8.43509C40.4281 8.41967 40.1891 8.40425 39.9116 8.38884C39.6495 8.37342 39.426 8.36571 39.2409 8.36571C38.8555 8.36571 38.5472 8.43509 38.3159 8.57385C38.1 8.71261 37.9459 8.99783 37.8534 9.42952C37.7695 9.82096 37.7173 10.4025 37.6968 11.1743C37.6932 11.3084 37.8015 11.4184 37.9357 11.4184H40.4348C40.5673 11.4184 40.6748 11.5258 40.6748 11.6584V13.0747C40.6748 13.2073 40.5673 13.3147 40.4348 13.3147H37.9546C37.8221 13.3147 37.7146 13.4222 37.7146 13.5547V23.921C37.7146 24.0535 37.6072 24.161 37.4746 24.161H35.5263Z" fill="var(--fill-0, #262626)"/>
<path d="M45.3367 24.4616C44.5967 24.4616 43.9646 24.2921 43.4404 23.9529C42.9162 23.6137 42.5153 23.0895 42.2378 22.3803C41.9603 21.6556 41.8215 20.7229 41.8215 19.582V10.8952C41.8215 10.7627 41.929 10.6552 42.0615 10.6552H44.0098C44.1423 10.6552 44.2498 10.7627 44.2498 10.8952V18.9807C44.2498 19.767 44.2729 20.3914 44.3192 20.8539C44.3654 21.3165 44.4502 21.6402 44.5736 21.8252C44.6815 21.9794 44.8434 22.0873 45.0592 22.149C45.2751 22.2107 45.5217 22.2415 45.7992 22.2415C46.416 22.2415 47.0404 22.1182 47.6725 21.8715C48.2663 21.6453 48.8148 21.4126 49.3178 21.1734C49.4008 21.1339 49.4532 21.05 49.4532 20.9581V10.8952C49.4532 10.7627 49.5607 10.6552 49.6932 10.6552H51.6184C51.7509 10.6552 51.8584 10.7627 51.8584 10.8952V23.921C51.8584 24.0535 51.7509 24.161 51.6184 24.161H50.4574C50.3439 24.161 50.2459 24.0815 50.2225 23.9704L50.007 22.9469C49.9943 22.8862 49.9407 22.8428 49.8788 22.8428C49.8575 22.8428 49.8365 22.848 49.8177 22.8579C49.5285 23.0105 49.1526 23.2136 48.69 23.4672C48.2275 23.7139 47.711 23.9452 47.1406 24.161C46.5701 24.3614 45.9688 24.4616 45.3367 24.4616Z" fill="var(--fill-0, #262626)"/>
<path d="M59.0588 24.4616C58.4421 24.4616 57.8485 24.4 57.278 24.2766C56.723 24.1533 56.2219 24.0145 55.7748 23.8604C55.3277 23.7062 54.9731 23.5751 54.711 23.4672C54.6299 23.429 54.5614 23.3968 54.5054 23.3704C54.3976 23.3197 54.3434 23.1978 54.3778 23.0838L54.8426 21.5465C54.8836 21.4108 55.0326 21.34 55.1637 21.394C55.2074 21.412 55.2569 21.4324 55.3123 21.4552C55.5744 21.5631 55.9213 21.6942 56.353 21.8484C56.7847 22.0025 57.2626 22.1413 57.7868 22.2646C58.311 22.3726 58.8352 22.4265 59.3594 22.4265C59.6523 22.4265 59.9144 22.4034 60.1457 22.3571C60.377 22.2955 60.562 22.2107 60.7007 22.1028C60.8549 21.964 60.9937 21.7636 61.117 21.5015C61.2404 21.224 61.302 20.9079 61.302 20.5533C61.302 19.9828 61.1556 19.5512 60.8626 19.2582C60.5697 18.9499 60.1843 18.7109 59.7063 18.5413C59.2438 18.3717 58.7427 18.2098 58.2031 18.0556C57.7406 17.9169 57.278 17.7704 56.8155 17.6162C56.3684 17.4467 55.9598 17.2308 55.5898 16.9687C55.2198 16.6912 54.9192 16.3289 54.6879 15.8818C54.472 15.4192 54.3641 14.8334 54.3641 14.1242C54.3641 12.9987 54.7187 12.0891 55.4279 11.3953C56.1526 10.7015 57.3397 10.3546 58.9894 10.3546C59.5753 10.3546 60.1303 10.3931 60.6545 10.4702C61.1941 10.5473 61.672 10.6398 62.0883 10.7477C62.3848 10.8136 62.6305 10.8717 62.8253 10.9219C62.9454 10.9529 63.019 11.0722 62.996 11.194L62.7108 12.709C62.6863 12.8392 62.5611 12.925 62.4308 12.9005C62.3911 12.8931 62.3463 12.8847 62.2965 12.8753C62.0652 12.8137 61.7568 12.7443 61.3714 12.6672C60.986 12.5901 60.5543 12.5285 60.0763 12.4822C59.6138 12.4205 59.1436 12.3897 58.6656 12.3897C58.2185 12.3897 57.8716 12.4128 57.6249 12.4591C57.3937 12.5053 57.2164 12.5824 57.093 12.6903C56.9851 12.7674 56.8849 12.9062 56.7924 13.1066C56.7153 13.307 56.6768 13.546 56.6768 13.8235C56.6768 14.3786 56.8386 14.8025 57.1624 15.0955C57.5016 15.3884 57.9256 15.612 58.4344 15.7661C58.9586 15.9203 59.4982 16.0822 60.0532 16.2518C60.5003 16.3906 60.932 16.5447 61.3483 16.7143C61.78 16.8685 62.1654 17.092 62.5046 17.385C62.8592 17.6625 63.1367 18.0248 63.3371 18.4719C63.553 18.919 63.6609 19.4818 63.6609 20.1601C63.6609 21.4398 63.2678 22.4805 62.4815 23.2822C61.6952 24.0685 60.5543 24.4616 59.0588 24.4616Z" fill="var(--fill-0, #262626)"/>
<path d="M71.0355 24.4848C69.9254 24.4848 68.9387 24.2612 68.0753 23.8141C67.2274 23.3516 66.5644 22.5961 66.0865 21.5477C65.6239 20.4993 65.3927 19.1117 65.3927 17.385C65.3927 15.5811 65.6394 14.1704 66.1327 13.1529C66.6415 12.1353 67.3122 11.4107 68.1447 10.979C68.9927 10.5473 69.9409 10.3314 70.9892 10.3314C72.0531 10.3314 72.955 10.5396 73.695 10.9559C74.4351 11.3567 74.9978 12.0274 75.3833 12.9679C75.7841 13.8929 75.9845 15.1417 75.9845 16.7143V18.07C75.9845 18.2026 75.8771 18.31 75.7445 18.31H67.7625C67.5803 18.31 67.5373 18.0554 67.7095 17.9957C67.818 17.958 67.93 18.0423 67.9255 18.157C67.8952 18.9271 67.922 19.564 68.006 20.0676C68.0985 20.6227 68.2218 21.0467 68.376 21.3396C68.5456 21.6171 68.692 21.8175 68.8154 21.9409C69.0158 22.1105 69.2625 22.2415 69.5554 22.334C69.8484 22.4265 70.203 22.4728 70.6192 22.4728C71.0663 22.4728 71.5134 22.4342 71.9606 22.3571C72.4231 22.2801 72.8548 22.1876 73.2556 22.0796C73.6565 21.9717 74.0111 21.8715 74.3194 21.779C74.5154 21.7137 74.6803 21.6596 74.8141 21.6169C74.9377 21.5775 75.069 21.6456 75.11 21.7686L75.5919 23.2142C75.631 23.3315 75.5745 23.459 75.4608 23.5074C75.3003 23.5756 75.074 23.6701 74.782 23.791C74.3349 23.9606 73.7875 24.1147 73.14 24.2535C72.5079 24.4077 71.8064 24.4848 71.0355 24.4848ZM67.9275 16.7424C67.9292 16.9358 67.715 17.0569 67.5525 16.9519L67.485 16.9083C67.2862 16.7799 67.3736 16.4717 67.6102 16.4668L73.8182 16.3378C74.0564 16.3329 74.1555 16.6406 73.9592 16.7755L73.8932 16.8209C73.7326 16.9313 73.5138 16.8142 73.5145 16.6193C73.517 15.8309 73.4924 15.1457 73.4406 14.5636C73.3944 13.8698 73.2556 13.3456 73.0244 12.991C72.9164 12.8368 72.7391 12.6903 72.4925 12.5516C72.2458 12.4128 71.7833 12.3434 71.1049 12.3434C70.3648 12.3434 69.8098 12.4205 69.4398 12.5747C69.0852 12.7289 68.8154 12.9293 68.6304 13.176C68.1468 13.7875 67.9125 14.9763 67.9275 16.7424Z" fill="var(--fill-0, #262626)"/>
<path d="M78.5836 28C78.4511 28 78.3436 27.8925 78.3436 27.76V10.8952C78.3436 10.7627 78.4511 10.6552 78.5836 10.6552H79.7458C79.8587 10.6552 79.9564 10.734 79.9803 10.8444L80.2226 11.9628C80.2328 12.0095 80.274 12.0428 80.3218 12.0428C80.3437 12.0428 80.3651 12.0357 80.3827 12.0226C80.6847 11.7976 81.0302 11.5654 81.4194 11.3259C81.8203 11.0638 82.2751 10.8402 82.7839 10.6552C83.2926 10.4548 83.8477 10.3546 84.449 10.3546C85.2969 10.3546 86.037 10.5935 86.6691 11.0715C87.3166 11.534 87.81 12.2664 88.1492 13.2685C88.5038 14.2706 88.6811 15.5657 88.6811 17.1537C88.6811 18.6492 88.5346 19.8749 88.2417 20.8308C87.9488 21.7867 87.5556 22.5344 87.0622 23.0741C86.5689 23.5983 86.0139 23.9606 85.3971 24.161C84.7959 24.3768 84.1869 24.4848 83.5702 24.4848C83.2001 24.4848 82.8224 24.4616 82.437 24.4154C82.0515 24.3846 81.7046 24.346 81.3963 24.2998C81.2498 24.2766 81.1226 24.2574 81.0146 24.2419C80.873 24.2217 80.7487 24.3324 80.7487 24.4754V27.76C80.7487 27.8925 80.6413 28 80.5088 28H78.5836ZM83.8246 22.4034C84.0558 22.4034 84.2871 22.388 84.5183 22.3571C84.765 22.3109 84.9809 22.2107 85.1659 22.0565C85.3663 21.9023 85.5359 21.6479 85.6747 21.2933C85.8288 20.9233 85.9445 20.3914 86.0216 19.6976C86.1141 19.0038 86.1603 18.0634 86.1603 16.8762C86.1603 15.9666 86.1372 15.2419 86.0909 14.7023C86.0447 14.1627 85.9753 13.7541 85.8828 13.4766C85.8094 13.1977 85.7081 12.9957 85.5788 12.8706C85.5659 12.8581 85.5539 12.8447 85.5428 12.8307C85.4641 12.7319 85.3385 12.6466 85.1659 12.5747C84.9809 12.4822 84.7034 12.4359 84.3333 12.4359C83.8708 12.4359 83.3852 12.513 82.8764 12.6672C82.383 12.8214 81.9359 12.9987 81.5351 13.1991C81.2342 13.3435 81.0085 13.4597 80.8579 13.5478C80.7887 13.5883 80.7487 13.6636 80.7487 13.7438V21.7796C80.7487 21.8883 80.8218 21.9836 80.9275 22.0093C81.1687 22.0679 81.5177 22.1454 81.9744 22.2415C82.5757 22.3494 83.1924 22.4034 83.8246 22.4034Z" fill="var(--fill-0, #262626)"/>
<path d="M94.1799 24.4616C93.4707 24.4616 92.8309 24.2921 92.2604 23.9529C91.7054 23.6137 91.266 23.128 90.9422 22.4959C90.6185 21.8484 90.4566 21.0621 90.4566 20.137C90.4566 19.027 90.6878 18.1636 91.1504 17.5469C91.6129 16.9147 92.2604 16.4676 93.093 16.2055C93.9409 15.928 94.92 15.7893 96.03 15.7893H98.0333C98.1658 15.7893 98.2734 15.6817 98.2724 15.5492C98.2679 14.9165 98.245 14.3875 98.2039 13.9623C98.1576 13.4689 98.0497 13.1066 97.8801 12.8753C97.7568 12.6903 97.5718 12.567 97.3251 12.5053C97.0784 12.4282 96.7778 12.3897 96.4232 12.3897C95.8219 12.3897 95.2283 12.4437 94.6424 12.5516C94.072 12.6595 93.5401 12.7905 93.0467 12.9447C92.5688 13.0835 92.1833 13.2068 91.8904 13.3147C91.8171 13.3433 91.7534 13.368 91.6995 13.389C91.5753 13.4373 91.4356 13.3751 91.3883 13.2505L90.8626 11.8662C90.8167 11.7454 90.8746 11.61 90.9937 11.5598C91.0556 11.5338 91.1309 11.502 91.2197 11.4646C91.5281 11.3259 91.9367 11.1717 92.4454 11.0021C92.9542 10.8325 93.5247 10.6861 94.1568 10.5627C94.7889 10.424 95.4519 10.3546 96.1457 10.3546C97.2711 10.3546 98.1653 10.5627 98.8283 10.979C99.4913 11.3798 99.9692 11.9503 100.262 12.6903C100.555 13.4304 100.702 14.3092 100.702 15.3267V23.921C100.702 24.0535 100.594 24.161 100.462 24.161H99.3409C99.2301 24.161 99.1337 24.0851 99.1077 23.9774L98.8284 22.823C98.8148 22.7668 98.7644 22.7272 98.7066 22.7272C98.6805 22.7272 98.655 22.7354 98.6337 22.7504C98.5214 22.8294 98.3396 22.9527 98.0883 23.1203C97.8107 23.3053 97.4716 23.5058 97.0707 23.7216C96.6699 23.922 96.2227 24.0916 95.7294 24.2304C95.236 24.3846 94.7195 24.4616 94.1799 24.4616ZM94.7349 22.4034C95.2437 22.4034 95.7371 22.3263 96.215 22.1721C96.7084 22.0025 97.1401 21.8329 97.5101 21.6634C97.7984 21.5192 98.0165 21.4031 98.1644 21.3152C98.2334 21.2741 98.2733 21.1989 98.2733 21.1186V18.0392C98.2733 17.9169 98.1813 17.8145 98.0595 17.8036C97.9116 17.7904 97.7131 17.7742 97.4639 17.755C97.0784 17.7088 96.5696 17.6856 95.9375 17.6856C94.6424 17.6856 93.833 17.8244 93.5092 18.1019C93.3397 18.2407 93.2009 18.4796 93.093 18.8188C93.0005 19.158 92.9542 19.582 92.9542 20.0908C92.9542 20.9079 93.093 21.5015 93.3705 21.8715C93.648 22.2261 94.1028 22.4034 94.7349 22.4034Z" fill="var(--fill-0, #262626)"/>
<path d="M104.881 28C104.715 28 104.599 27.8353 104.655 27.6789L106.361 22.9238C106.379 22.8714 106.379 22.8142 106.361 22.7618L102.134 10.9762C102.078 10.8199 102.194 10.6552 102.36 10.6552H104.385C104.49 10.6552 104.584 10.7244 104.614 10.8255L107.463 20.2084C107.471 20.2347 107.495 20.2526 107.523 20.2526C107.55 20.2526 107.575 20.2346 107.583 20.2083L110.409 10.826C110.439 10.7246 110.532 10.6552 110.638 10.6552H112.662C112.829 10.6552 112.944 10.8201 112.888 10.9765L108.425 23.3747L107.134 27.8268C107.104 27.9294 107.01 28 106.903 28H104.881Z" fill="var(--fill-0, #262626)"/>
</g>
</g>
</svg>
