<svg preserveAspectRatio="none" width="100%" height="100%" overflow="visible" style="display: block;" viewBox="0 0 11.9167 14.5833" fill="none" xmlns="http://www.w3.org/2000/svg">
<path id="vector" d="M11.2917 6.625C11.2917 6.09457 11.081 5.58586 10.7059 5.21079C10.3308 4.83571 9.8221 4.625 9.29167 4.625H8.89167C8.64367 4.625 8.52033 4.625 8.41633 4.60833C8.13834 4.56424 7.88143 4.4333 7.6824 4.23427C7.48337 4.03524 7.35243 3.77833 7.30833 3.50033C7.29167 3.39633 7.29167 3.273 7.29167 3.025V2.625C7.29167 2.09457 7.08095 1.58586 6.70588 1.21079C6.33081 0.835714 5.8221 0.625 5.29167 0.625M6.29167 7.95833H8.625M6.29167 10.625H8.625M3.29167 10.625H4.29167M3.29167 7.95833H4.29167M11.2917 5.95833V11.2917C11.2917 11.9989 11.0107 12.6772 10.5106 13.1773C10.0105 13.6774 9.33224 13.9583 8.625 13.9583H3.29167C2.58442 13.9583 1.90615 13.6774 1.40605 13.1773C0.905951 12.6772 0.625 11.9989 0.625 11.2917V3.29167C0.625 2.58442 0.905951 1.90615 1.40605 1.40605C1.90615 0.905952 2.58442 0.625 3.29167 0.625H5.95833C7.37282 0.625 8.72938 1.1869 9.72957 2.1871C10.7298 3.18729 11.2917 4.54385 11.2917 5.95833Z" stroke="var(--stroke-0, #939596)" stroke-width="1.25" stroke-linecap="round" stroke-linejoin="round"/>
</svg>
