<svg preserveAspectRatio="none" width="100%" height="100%" overflow="visible" style="display: block;" viewBox="0 0 13.25 13.25" fill="none" xmlns="http://www.w3.org/2000/svg">
<g id="vector">
<path d="M5.55713 1.47778C5.81504 0.340741 7.43496 0.340742 7.69288 1.47778L7.72707 1.62852C7.89419 2.3653 8.73961 2.71548 9.37877 2.31268L9.50954 2.23026C10.4959 1.60863 11.6414 2.75409 11.0197 3.74047L10.9373 3.87124C10.5345 4.51039 10.8847 5.35581 11.6215 5.52293L11.7722 5.55713C12.9093 5.81504 12.9093 7.43496 11.7722 7.69288L11.6215 7.72707C10.8847 7.89419 10.5345 8.73961 10.9373 9.37877L11.0197 9.50954C11.6414 10.4959 10.4959 11.6414 9.50954 11.0197L9.37877 10.9373C8.73961 10.5345 7.89419 10.8847 7.72707 11.6215L7.69288 11.7722C7.43496 12.9093 5.81504 12.9093 5.55713 11.7722L5.52293 11.6215C5.35581 10.8847 4.51039 10.5345 3.87124 10.9373L3.74047 11.0197C2.75409 11.6414 1.60863 10.4959 2.23026 9.50954L2.31268 9.37877C2.71548 8.73961 2.3653 7.89419 1.62852 7.72707L1.47778 7.69288C0.340741 7.43496 0.340742 5.81504 1.47778 5.55713L1.62852 5.52293C2.3653 5.35581 2.71548 4.51039 2.31268 3.87124L2.23026 3.74046C1.60863 2.75409 2.75409 1.60863 3.74046 2.23026L3.87124 2.31268C4.51039 2.71548 5.35581 2.3653 5.52293 1.62852L5.55713 1.47778Z" stroke="var(--stroke-0, #939596)" stroke-width="1.25" stroke-linecap="round" stroke-linejoin="round"/>
<path d="M5.95223 6.62501C5.95223 6.25682 6.25683 5.95834 6.62502 5.95834C6.99321 5.95834 7.29781 6.25682 7.29781 6.62501C7.29781 6.9932 6.99321 7.29167 6.62502 7.29167C6.25683 7.29167 5.95223 6.9932 5.95223 6.62501Z" stroke="var(--stroke-0, #939596)" stroke-width="1.25" stroke-linecap="round" stroke-linejoin="round"/>
</g>
</svg>
