<svg preserveAspectRatio="none" width="100%" height="100%" overflow="visible" style="display: block;" viewBox="0 0 13.2498 13.2499" fill="none" xmlns="http://www.w3.org/2000/svg">
<path id="vector" d="M10.1029 0.626592L10.1046 1.25159C10.1184 1.25155 10.1322 1.25106 10.146 1.25011L10.1029 0.626592ZM3.1137 0.644935L3.07991 1.26902C3.09171 1.26966 3.10352 1.26996 3.11534 1.26993L3.1137 0.644935ZM0.887675 5.78161L1.44347 5.49574L1.44346 5.49573L0.887675 5.78161ZM2.34478 6.62881L2.28479 7.25092C2.29977 7.25237 2.3148 7.25327 2.32985 7.25363L2.34478 6.62881ZM4.21846 4.70851L4.81558 4.52392C4.72429 4.22858 4.43079 4.04435 4.12512 4.09052C3.81946 4.13668 3.59346 4.39937 3.59346 4.70851H4.21846ZM7.41432 6.49993L7.23919 5.89997L7.23918 5.89997L7.41432 6.49993ZM9.04871 4.70851L9.67041 4.64441C9.63894 4.33917 9.39054 4.10193 9.08419 4.08451C8.77783 4.0671 8.50414 4.27465 8.43828 4.57435L9.04871 4.70851ZM10.2653 6.5094L10.514 5.936L10.514 5.93599L10.2653 6.5094ZM12.2041 3.85083L12.706 3.47843L12.706 3.47842L12.2041 3.85083ZM11.4878 2.03731L12.1095 1.97268L12.1095 1.97257L11.4878 2.03731ZM11.1841 1.0676L11.631 0.63068L11.631 0.630635L11.1841 1.0676ZM1.22333 5.98506H0.598332V8.8307H1.22333H1.84833V5.98506H1.22333ZM1.22333 8.8307H0.598332C0.598332 9.70819 0.597135 10.426 0.669276 10.9914C0.743303 11.5716 0.904117 12.0851 1.29732 12.4995L1.75067 12.0692L2.20402 11.639C2.06989 11.4977 1.96703 11.2862 1.90922 10.8332C1.84953 10.3654 1.84833 9.74177 1.84833 8.8307H1.22333ZM1.75067 12.0692L1.29732 12.4995C1.69491 12.9184 2.19521 13.0941 2.76098 13.1743C3.30526 13.2514 3.99407 13.2499 4.82422 13.2499V12.6249V11.9999C3.95689 11.9999 3.3726 11.9984 2.93631 11.9366C2.5215 11.8778 2.33377 11.7757 2.20402 11.639L1.75067 12.0692ZM4.82422 12.6249V13.2499H8.42509V12.6249V11.9999H4.82422V12.6249ZM8.42509 12.6249V13.2499C9.25523 13.2499 9.94404 13.2514 10.4883 13.1743C11.0541 13.0941 11.5544 12.9184 11.952 12.4995L11.4986 12.0692L11.0453 11.639C10.9155 11.7757 10.7278 11.8778 10.313 11.9366C9.8767 11.9984 9.29241 11.9999 8.42509 11.9999V12.6249ZM11.4986 12.0692L11.952 12.4995C12.3452 12.0851 12.506 11.5716 12.58 10.9914C12.6522 10.426 12.651 9.70819 12.651 8.8307H12.026H11.401C11.401 9.74177 11.3998 10.3654 11.3401 10.8332C11.2823 11.2862 11.1794 11.4976 11.0453 11.639L11.4986 12.0692ZM12.026 8.8307H12.651V5.98506H12.026H11.401V8.8307H12.026ZM10.1029 0.626592L10.1013 0.00159383L3.11206 0.0199372L3.1137 0.644935L3.11534 1.26993L10.1046 1.25159L10.1029 0.626592ZM3.1137 0.644935L3.14748 0.0208488C2.42514 -0.0182539 1.8979 0.265689 1.57221 0.68816C1.27331 1.07589 1.17808 1.53354 1.17808 1.84679H1.80308H2.42808C2.42808 1.74688 2.46657 1.57537 2.56219 1.45135C2.63102 1.36206 2.7591 1.25165 3.07991 1.26902L3.1137 0.644935ZM1.80308 1.84679H1.17808C1.17808 2.09228 1.1695 2.51605 0.589995 3.43375L1.11845 3.76745L1.64691 4.10116C2.34609 2.99393 2.42808 2.34033 2.42808 1.84679H1.80308ZM1.11845 3.76745L0.589995 3.43375C0.266766 3.94561 0.0409654 4.38718 0.00504929 4.84218C-0.0329201 5.32319 0.149846 5.71357 0.331888 6.06748L0.887675 5.78161L1.44346 5.49573C1.26498 5.14873 1.24346 5.03826 1.25117 4.94054C1.26094 4.81681 1.33079 4.60176 1.64691 4.10116L1.11845 3.76745ZM0.887675 5.78161L0.331883 6.06747C0.56512 6.52094 0.958879 6.8028 1.30718 6.9715C1.65759 7.14123 2.02004 7.22539 2.28479 7.25092L2.34478 6.62881L2.40477 6.00669C2.2727 5.99396 2.0562 5.94539 1.85207 5.84652C1.64583 5.74662 1.50945 5.62402 1.44347 5.49574L0.887675 5.78161ZM2.34478 6.62881L2.32985 7.25363C3.17654 7.27386 3.82203 6.8904 4.23967 6.37556C4.6428 5.87861 4.84346 5.25127 4.84346 4.70851H4.21846H3.59346C3.59346 4.97074 3.48751 5.31861 3.26891 5.58808C3.06481 5.83968 2.77346 6.01387 2.35971 6.00399L2.34478 6.62881ZM4.21846 4.70851L3.62134 4.89309C3.99132 6.08997 4.73356 6.74635 5.54197 7.0375C6.31479 7.31583 7.09644 7.24382 7.58947 7.09989L7.41432 6.49993L7.23918 5.89997C6.93989 5.98734 6.43625 6.03098 5.96553 5.86145C5.53041 5.70474 5.07087 5.34977 4.81558 4.52392L4.21846 4.70851ZM7.41432 6.49993L7.58946 7.09989C8.12682 6.94303 8.59099 6.59728 8.93752 6.20485C9.28378 5.81274 9.55214 5.32955 9.65914 4.84266L9.04871 4.70851L8.43828 4.57435C8.3848 4.81769 8.2329 5.11434 8.00056 5.37745C7.76849 5.64025 7.4957 5.82509 7.23919 5.89997L7.41432 6.49993ZM9.04871 4.70851L8.427 4.77261C8.47837 5.27079 8.5883 5.7417 8.85197 6.15118C9.12293 6.57199 9.51504 6.86529 10.0167 7.08282L10.2653 6.5094L10.514 5.93599C10.1765 5.78968 10.0071 5.63627 9.90294 5.47446C9.79146 5.30132 9.71261 5.0537 9.67041 4.64441L9.04871 4.70851ZM10.2653 6.5094L10.0167 7.08281C11.2827 7.63184 12.3129 6.76295 12.6954 6.38633L12.2569 5.94098L11.8184 5.49563C11.4509 5.85754 10.9862 6.14078 10.514 5.936L10.2653 6.5094ZM12.2569 5.94098L12.6954 6.38633C13.3026 5.78846 13.5517 4.61818 12.706 3.47843L12.2041 3.85083L11.7022 4.22323C12.1936 4.88558 11.9613 5.35497 11.8184 5.49563L12.2569 5.94098ZM12.2041 3.85083L12.706 3.47842C12.3163 2.95315 12.1618 2.47576 12.1095 1.97268L11.4878 2.03731L10.8662 2.10194C10.94 2.81231 11.1698 3.50572 11.7022 4.22323L12.2041 3.85083ZM11.4878 2.03731L12.1095 1.97257C12.0928 1.81203 12.0718 1.58011 12.0168 1.35962C11.9602 1.13249 11.8551 0.859945 11.631 0.63068L11.1841 1.0676L10.7372 1.50451C10.7481 1.51564 10.7766 1.55217 10.8039 1.66192C10.8329 1.7783 10.8463 1.91104 10.8662 2.10204L11.4878 2.03731ZM11.1841 1.0676L11.631 0.630635C11.1413 0.129889 10.46 -0.0245535 10.0599 0.00307637L10.1029 0.626592L10.146 1.25011C10.1693 1.24849 10.2687 1.25325 10.4011 1.29931C10.5273 1.3432 10.6468 1.4121 10.7372 1.50456L11.1841 1.0676Z" fill="var(--stroke-0, #939596)"/>
</svg>
