<svg preserveAspectRatio="none" width="100%" height="100%" overflow="visible" style="display: block;" viewBox="0 0 11.9167 14.5833" fill="none" xmlns="http://www.w3.org/2000/svg">
<path id="vector" d="M7.29167 0.663353V1.42501C7.29167 2.54511 7.29167 3.10516 7.50965 3.53299C7.7014 3.90931 8.00736 4.21527 8.38369 4.40702C8.81151 4.62501 9.37156 4.62501 10.4917 4.62501L11.2533 4.62501M11.2533 4.62501C11.244 4.5612 11.2324 4.50043 11.218 4.44039C11.1527 4.16829 11.0449 3.90817 10.8987 3.66958C10.7338 3.40047 10.5032 3.16987 10.042 2.70866L9.20801 1.87468C8.74681 1.41348 8.5162 1.18288 8.24709 1.01797C8.0085 0.871756 7.74838 0.764011 7.47629 0.698687C7.41625 0.684273 7.35547 0.672679 7.29167 0.663353C7.02931 0.625006 6.71567 0.625006 6.19102 0.625006H4.89167C3.39819 0.625006 2.65146 0.625006 2.08103 0.915656C1.57926 1.17132 1.17131 1.57927 0.91565 2.08103C0.625 2.65146 0.625 3.3982 0.625 4.89167V9.69167C0.625 11.1851 0.625 11.9319 0.91565 12.5023C1.17131 13.0041 1.57926 13.412 2.08103 13.6677C2.65146 13.9583 3.39819 13.9583 4.89167 13.9583H7.025C8.51847 13.9583 9.26521 13.9583 9.83564 13.6677C10.3374 13.412 10.7454 13.0041 11.001 12.5023C11.2917 11.9319 11.2917 11.1851 11.2917 9.69167V5.72565C11.2917 5.201 11.2917 4.88736 11.2533 4.62501ZM3.29167 7.95834H8.625M3.29167 10.625H6.625" stroke="var(--stroke-0, #939596)" stroke-width="1.25" stroke-linecap="round" stroke-linejoin="round"/>
</svg>
