<svg preserveAspectRatio="none" width="100%" height="100%" overflow="visible" style="display: block;" viewBox="0 0 14.5833 11.25" fill="none" xmlns="http://www.w3.org/2000/svg">
<path id="vector" d="M2.625 9.29167C2.2181 9.29055 1.72909 9.33796 1.35301 9.14634C1.10213 9.01851 0.898157 8.81454 0.770326 8.56366C0.625001 8.27844 0.625001 7.90507 0.625001 7.15833V2.75833C0.625001 2.0116 0.625001 1.63823 0.770326 1.35301C0.898157 1.10213 1.10213 0.898157 1.35301 0.770326C1.63823 0.625001 2.0116 0.625001 2.75833 0.625001H7.15833C7.90507 0.625001 8.27844 0.625001 8.56365 0.770326C8.81454 0.898157 9.01851 1.10213 9.14634 1.35301C9.28275 1.62073 9.29112 1.9661 9.29163 2.625C9.29167 2.66808 9.29167 2.71251 9.29167 2.75833V9.29167M9.29167 9.29167C9.29167 10.028 9.88862 10.625 10.625 10.625C11.3614 10.625 11.9583 10.028 11.9583 9.29167M9.29167 9.29167C9.29167 8.55529 9.88862 7.95833 10.625 7.95833C11.3614 7.95833 11.9583 8.55529 11.9583 9.29167M9.29167 9.29167H5.29167M11.9583 9.29167C12.3653 9.29064 12.8543 9.33796 13.2303 9.14634C13.4812 9.01851 13.6852 8.81454 13.813 8.56366C13.9583 8.27844 13.9583 7.90507 13.9583 7.15833V5.95833L13.1614 3.96603C12.9677 3.48184 12.8709 3.23974 12.7091 3.06166C12.5661 2.9043 12.3876 2.78343 12.1884 2.70911C11.9629 2.625 11.7022 2.625 11.1807 2.625H9.29163M5.29167 9.29167C5.29167 10.028 4.69471 10.625 3.95833 10.625C3.22195 10.625 2.625 10.028 2.625 9.29167M5.29167 9.29167C5.29167 8.55529 4.69471 7.95833 3.95833 7.95833C3.22195 7.95833 2.625 8.55529 2.625 9.29167" stroke="var(--stroke-0, #939596)" stroke-width="1.25" stroke-linecap="round" stroke-linejoin="round"/>
</svg>
