<svg preserveAspectRatio="none" width="100%" height="100%" overflow="visible" style="display: block;" viewBox="0 0 13.25 13.25" fill="none" xmlns="http://www.w3.org/2000/svg">
<path id="vector" d="M10.7506 4.625C11.4086 5.1185 12.0029 5.691 12.5201 6.32929C12.59 6.41561 12.625 6.52031 12.625 6.625M10.7506 8.625C11.4086 8.1315 12.0029 7.559 12.5201 6.92071C12.59 6.83439 12.625 6.72969 12.625 6.625M12.625 6.625H3.95833M7.29167 1.64352C6.58399 1.01014 5.64947 0.625 4.625 0.625C2.41586 0.625 0.625 2.41586 0.625 4.625V8.625C0.625 10.8341 2.41586 12.625 4.625 12.625C5.64947 12.625 6.58399 12.2399 7.29167 11.6065" stroke="var(--stroke-0, #939596)" stroke-width="1.25" stroke-linecap="round" stroke-linejoin="round"/>
</svg>
