<svg preserveAspectRatio="none" width="100%" height="100%" overflow="visible" style="display: block;" viewBox="0 0 12.9169 14.2132" fill="none" xmlns="http://www.w3.org/2000/svg">
<path id="vector" d="M3.21764 8.40293V13.5882H9.69925V8.40293M3.21764 8.40293C3.21764 7.18076 3.21764 6.56967 3.59733 6.18998C3.97701 5.81029 4.5881 5.81029 5.81029 5.81029H7.10661C8.32878 5.81029 8.93987 5.81029 9.31956 6.18998C9.69925 6.56967 9.69925 7.18076 9.69925 8.40293M3.21764 8.40293H9.69925M3.21764 10.9956H9.69925M10.4308 2.71988L8.48635 1.53064C7.49914 0.926881 7.00556 0.625 6.45845 0.625C5.91134 0.625 5.41776 0.926881 4.43055 1.53064L2.48607 2.71988C1.57671 3.27604 1.12203 3.55412 0.873513 3.99758C0.625001 4.44105 0.625001 4.97433 0.625001 6.0409V9.69614C0.625001 11.5309 0.625001 12.4482 1.19453 13.0182C1.76405 13.5882 2.68069 13.5882 4.51397 13.5882H8.40293C10.2362 13.5882 11.1528 13.5882 11.7224 13.0182C12.2919 12.4482 12.2919 11.5309 12.2919 9.69614V6.0409C12.2919 4.97433 12.2919 4.44105 12.0434 3.99758C11.7949 3.55412 11.3402 3.27604 10.4308 2.71988Z" stroke="var(--stroke-0, #939596)" stroke-width="1.25" stroke-linecap="round" stroke-linejoin="round"/>
</svg>
