<svg width="16" height="16" viewBox="0 0 16 16" fill="none" xmlns="http://www.w3.org/2000/svg">
<path d="M9.33073 1.37428V2.13594C9.33073 3.25604 9.33073 3.81609 9.54872 4.24392C9.74046 4.62024 10.0464 4.9262 10.4227 5.11795C10.8506 5.33594 11.4106 5.33594 12.5307 5.33594L13.2924 5.33594M13.2924 5.33594C13.2831 5.27213 13.2715 5.21136 13.257 5.15132C13.1917 4.87922 13.084 4.6191 12.9378 4.38051C12.7729 4.1114 12.5423 3.8808 12.0811 3.41959L11.2471 2.58561C10.7859 2.12441 10.5553 1.89381 10.2862 1.7289C10.0476 1.58269 9.78744 1.47494 9.51535 1.40962C9.45531 1.3952 9.39454 1.38361 9.33073 1.37428C9.06837 1.33594 8.75473 1.33594 8.23008 1.33594H6.93073C5.43726 1.33594 4.69052 1.33594 4.12009 1.62659C3.61832 1.88225 3.21037 2.2902 2.95471 2.79196C2.66406 3.36239 2.66406 4.10913 2.66406 5.6026V10.4026C2.66406 11.8961 2.66406 12.6428 2.95471 13.2132C3.21037 13.715 3.61832 14.123 4.12009 14.3786C4.69052 14.6693 5.43726 14.6693 6.93073 14.6693H9.06406C10.5575 14.6693 11.3043 14.6693 11.8747 14.3786C12.3765 14.123 12.7844 13.715 13.0401 13.2132C13.3307 12.6428 13.3307 11.8961 13.3307 10.4026V6.43658C13.3307 5.91194 13.3307 5.5983 13.2924 5.33594ZM5.33073 8.66927H10.6641M5.33073 11.3359H8.66406" stroke="#939596" stroke-width="1.25" stroke-linecap="round" stroke-linejoin="round"/>
</svg>
