<svg preserveAspectRatio="xMidYMid meet" overflow="visible" style="display: block;" viewBox="0 0 13.2501 13.2501" fill="none" xmlns="http://www.w3.org/2000/svg">
<g id="vector">
<path d="M0.625049 2.75838C0.625049 2.01172 0.625049 1.63838 0.770383 1.35305C0.898212 1.10218 1.10218 0.898212 1.35305 0.770383C1.63838 0.625049 2.01172 0.625049 2.75838 0.625049H3.15838C3.90505 0.625049 4.27838 0.625049 4.56372 0.770383C4.81459 0.898212 5.01855 1.10218 5.14638 1.35305C5.29172 1.63838 5.29172 2.01172 5.29172 2.75838V4.49172C5.29172 5.23838 5.29172 5.61172 5.14638 5.89705C5.01855 6.14792 4.81459 6.35189 4.56372 6.47972C4.27838 6.62505 3.90505 6.62505 3.15838 6.62505H2.75838C2.01172 6.62505 1.63838 6.62505 1.35305 6.47972C1.10218 6.35189 0.898212 6.14792 0.770383 5.89705C0.625049 5.61172 0.625049 5.23838 0.625049 4.49172V2.75838Z" stroke="currentColor" stroke-width="1.25" stroke-linecap="round" stroke-linejoin="round"/>
<path d="M0.625049 10.9584C0.625049 10.6484 0.62505 10.4937 0.650383 10.3651C0.701786 10.1063 0.828802 9.86858 1.01535 9.68202C1.20191 9.49547 1.43961 9.36845 1.69838 9.31705C1.82705 9.29172 1.98172 9.29172 2.29172 9.29172H3.62505C3.93505 9.29172 4.08972 9.29172 4.21838 9.31705C4.47715 9.36845 4.71486 9.49547 4.90141 9.68202C5.08796 9.86858 5.21498 10.1063 5.26638 10.3651C5.29172 10.4937 5.29172 10.6484 5.29172 10.9584C5.29172 11.2684 5.29172 11.423 5.26638 11.5517C5.21498 11.8105 5.08796 12.0482 4.90141 12.2347C4.71486 12.4213 4.47715 12.5483 4.21838 12.5997C4.08972 12.625 3.93505 12.625 3.62505 12.625H2.29172C1.98172 12.625 1.82705 12.625 1.69838 12.5997C1.43961 12.5483 1.20191 12.4213 1.01535 12.2347C0.828802 12.0482 0.701786 11.8105 0.650383 11.5517C0.62505 11.423 0.625049 11.2684 0.625049 10.9584Z" stroke="currentColor" stroke-width="1.25" stroke-linecap="round" stroke-linejoin="round"/>
<path d="M7.95838 2.29172C7.95838 1.98172 7.95838 1.82705 7.98372 1.69838C8.03512 1.43961 8.16213 1.20191 8.34869 1.01535C8.53524 0.828802 8.77295 0.701786 9.03172 0.650383C9.16038 0.62505 9.31505 0.625049 9.62505 0.625049H10.9584C11.2684 0.625049 11.423 0.62505 11.5517 0.650383C11.8105 0.701786 12.0482 0.828802 12.2347 1.01535C12.4213 1.20191 12.5483 1.43961 12.5997 1.69838C12.625 1.82705 12.625 1.98172 12.625 2.29172C12.625 2.60172 12.625 2.75638 12.5997 2.88505C12.5483 3.14382 12.4213 3.38152 12.2347 3.56808C12.0482 3.75463 11.8105 3.88165 11.5517 3.93305C11.423 3.95838 11.2684 3.95838 10.9584 3.95838H9.62505C9.31505 3.95838 9.16038 3.95838 9.03172 3.93305C8.77295 3.88165 8.53524 3.75463 8.34869 3.56808C8.16213 3.38152 8.03512 3.14382 7.98372 2.88505C7.95838 2.75638 7.95838 2.60172 7.95838 2.29172Z" stroke="currentColor" stroke-width="1.25" stroke-linecap="round" stroke-linejoin="round"/>
<path d="M7.95838 8.75838C7.95838 8.01172 7.95838 7.63838 8.10372 7.35305C8.23155 7.10218 8.43551 6.89821 8.68638 6.77038C8.97172 6.62505 9.34505 6.62505 10.0917 6.62505H10.4917C11.2384 6.62505 11.6117 6.62505 11.897 6.77038C12.1479 6.89821 12.3519 7.10218 12.4797 7.35305C12.625 7.63838 12.625 8.01172 12.625 8.75838V10.4917C12.625 11.2384 12.625 11.6117 12.4797 11.897C12.3519 12.1479 12.1479 12.3519 11.897 12.4797C11.6117 12.625 11.2384 12.625 10.4917 12.625H10.0917C9.34505 12.625 8.97172 12.625 8.68638 12.4797C8.43551 12.3519 8.23155 12.1479 8.10372 11.897C7.95838 11.6117 7.95838 11.2384 7.95838 10.4917V8.75838Z" stroke="currentColor" stroke-width="1.25" stroke-linecap="round" stroke-linejoin="round"/>
</g>
</svg>

